<?xml version="1.0" standalone="no"?>
<!DOCTYPE svg PUBLIC "-//W3C//DTD SVG 1.1//EN" "http://www.w3.org/Graphics/SVG/1.1/DTD/svg11.dtd" >
<svg xmlns="http://www.w3.org/2000/svg" xmlns:xlink="http://www.w3.org/1999/xlink" version="1.1">
<metadata>
Created by FontForge 20170910 at Sun Feb 16 23:48:05 2014
 By Jimmy Wärting
Copyright (c) 2014 ( Jozoor Fonts ) All Rights Reserved
</metadata>
<defs>
<font id="JFFlat-Light" horiz-adv-x="0" >
  <font-face 
    font-family="JF Flat"
    font-weight="300"
    font-stretch="normal"
    units-per-em="2048"
    panose-1="2 0 5 0 0 0 0 0 0 0"
    ascent="1638"
    descent="-410"
    x-height="949"
    cap-height="1410"
    bbox="-63 -551 2362 2005"
    underline-thickness="150"
    underline-position="-292"
    unicode-range="U+0020-FEFC"
  />
<missing-glyph horiz-adv-x="1024" 
d="M100 0v1434h824v-1434h-824zM150 50h724v1334h-724v-1334zM325 1148q31 28 58 43q53 30 112 30q92 0 148 -47.5t56 -127.5q0 -49 -23 -98.5t-87 -129.5q-63 -80 -99 -132t-36 -99q0 -38 24 -133h-32q-35 97 -35 148q0 76 81.5 218t81.5 217q0 57 -33 90t-91 33
q-38 0 -69 -17q-26 -15 -56 -40v45zM389 334l57 58q11 10 20 10q10 0 22 -11l56 -60q9 -11 9 -20q0 -11 -10 -22l-56 -62q-14 -14 -21 -14q-11 0 -20 10l-61 71q-7 9 -7 18q0 10 11 22z" />
    <glyph glyph-name="LamAlefMaddaIsol" unicode="&#xfedf;&#xfe82;" horiz-adv-x="1174" arabic-form="isolated" 
d="M987 1410q27 0 27 -27v-1068q0 -150 -82 -233q-83 -82 -233 -82h-572q-27 0 -27 27v28q0 27 27 27h572q234 0 234 233v1068q0 27 26 27h28zM468 1246q27 0 27 -27v-872q0 -27 -27 -27h-27q-28 0 -28 27v872q0 27 28 27h27zM270 1420q-15 8 -15 20q0 8 6 17l1 2
q33 56 96 59h10q36 0 101 -18q49 -13 80 -13q35 0 48 16l2 2q10 12 20 12q9 0 18 -8l5 -3q9 -7 10 -18v-5q0 -9 -6 -15l-1 -3q-30 -38 -96 -38q-40 0 -95 15q-61 16 -87 16h-3q-33 -1 -50 -29l-1 -2q-9 -16 -22 -16q-7 0 -16 6z" />
    <glyph glyph-name="LamAlefMaddaFinl" unicode="&#xfee0;&#xfe82;" horiz-adv-x="1218" arabic-form="final" 
d="M1248 0h-48q-121 0 -191 72q-23 23 -41 56q-78 -128 -268 -128h-572q-28 0 -28 27v28q0 27 28 27h572q231 0 231 232v1069q0 27 28 27h27q28 0 28 -27v-1156q0 -59 38 -97q48 -48 132 -48h64v-82zM468 1246q28 0 28 -27v-872q0 -27 -28 -27h-27q-28 0 -28 27v872
q0 27 28 27h27zM270 1420q-14 8 -14 20q0 8 5 17l1 2q33 56 96 59h10q35 0 101 -18q49 -13 80 -13q35 0 48 16l2 2q10 12 20 12q9 0 18 -8l5 -3q9 -6 10 -18v-5q0 -8 -5 -16l-2 -2q-31 -38 -97 -38q-40 0 -95 15q-60 16 -87 16h-3q-33 -1 -50 -29v-2q-9 -16 -22 -16
q-7 0 -16 6z" />
    <glyph glyph-name="LamAlefHamzaAboveIsol" unicode="&#xfedf;&#xfe84;" horiz-adv-x="1173" arabic-form="isolated" 
d="M987 1410q26 0 26 -27v-1068q0 -150 -82 -233q-82 -82 -232 -82h-572q-27 0 -27 27v28q0 27 27 27h572q233 0 233 233v1068q0 27 27 27h28zM468 1246q27 0 27 -27v-872q0 -27 -27 -27h-28q-27 0 -27 27v872q0 27 27 27h28zM315 1436q-27 0 -27 28v5q0 27 27 27h41v114
q0 55 39 93q38 39 92 39q86 0 120 -80l1 -3q3 -8 3 -14q0 -15 -18 -22l-4 -2q-8 -3 -14 -3q-15 0 -21 18l-2 2q-19 43 -65 43q-29 0 -50 -20q-21 -21 -21 -51v-114h177q28 0 28 -27v-5q0 -28 -28 -28h-278z" />
    <glyph glyph-name="LamAlefHamzaAboveFinl" unicode="&#xfee0;&#xfe84;" horiz-adv-x="1218" arabic-form="final" 
d="M1248 0h-48q-120 0 -192 72q-23 23 -40 56q-78 -128 -268 -128h-573q-27 0 -27 27v28q0 27 27 27h573q231 0 231 232v1069q0 27 28 27h27q28 0 28 -27v-1156q0 -59 38 -97q48 -48 132 -48h64v-82zM468 1246q27 0 27 -27v-872q0 -27 -27 -27h-28q-27 0 -27 27v872
q0 27 27 27h28zM314 1436q-26 0 -26 28v5q0 27 26 27h42v114q0 55 38 93t93 38q85 0 121 -79l1 -3q3 -7 3 -13q0 -15 -18 -23l-5 -2q-8 -3 -14 -3q-15 0 -22 18l-1 2q-18 43 -65 43q-30 0 -51 -20q-20 -21 -20 -51v-114h177q28 0 28 -27v-5q0 -28 -28 -28h-279z" />
    <glyph glyph-name="LamAlefHamzaBelowIsol" unicode="&#xfedf;&#xfe88;" horiz-adv-x="1173" arabic-form="isolated" 
d="M987 1410q26 0 26 -27v-1069q0 -150 -82 -232t-232 -82h-572q-27 0 -27 27v27q0 28 27 28h572q233 0 233 232v1069q0 27 27 27h28zM440 320q-27 0 -27 27v872q0 27 27 27h28q27 0 27 -27v-872q0 -27 -27 -27h-28zM593 -382q28 0 28 -27v-6q0 -27 -28 -27h-278
q-27 0 -27 27v6q0 27 27 27h41v114q0 54 38 93q39 38 93 38q86 0 121 -80v-2q4 -8 4 -14q0 -14 -18 -22l-5 -2q-8 -3 -14 -3q-15 0 -22 17l-1 3q-18 43 -65 43q-29 0 -50 -21q-21 -20 -21 -50v-114h177z" />
    <glyph glyph-name="LamAlefHamzaBelowFinl" unicode="&#xfee0;&#xfe88;" horiz-adv-x="1218" arabic-form="final" 
d="M1248 0h-48q-120 0 -192 72q-23 23 -40 56q-78 -128 -268 -128h-573q-27 0 -27 27v27q0 28 27 28h573q231 0 231 232v1069q0 27 28 27h27q28 0 28 -27v-1157q0 -58 38 -96q48 -48 132 -48h64v-82zM441 320q-28 0 -28 27v872q0 27 28 27h27q27 0 27 -27v-872
q0 -27 -27 -27h-27zM593 -382q28 0 28 -27v-6q0 -27 -28 -27h-278q-27 0 -27 27v6q0 27 27 27h41v114q0 54 38 93q39 38 93 38q87 0 120 -80l1 -2q3 -8 3 -14q0 -14 -16 -22l-6 -2q-8 -3 -14 -3q-14 0 -22 17l-1 3q-17 43 -65 43q-29 0 -50 -21q-21 -20 -21 -50v-114h177z
" />
    <glyph glyph-name="LamAlefIsol" unicode="&#xfedf;&#xfe8e;" horiz-adv-x="1175" arabic-form="isolated" 
d="M987 1410q28 0 28 -27v-1068q0 -150 -83 -233q-82 -82 -232 -82h-573q-27 0 -27 27v28q0 27 27 27h573q232 0 232 233v1068q0 27 28 27h27zM441 320q-28 0 -28 27v872q0 27 28 27h27q28 0 28 -27v-872q0 -27 -28 -27h-27z" />
    <glyph glyph-name="LamAlefFinl" unicode="&#xfee0;&#xfe8e;" horiz-adv-x="1218" arabic-form="final" 
d="M1248 0h-48q-120 0 -192 72q-24 24 -40 56q-78 -128 -268 -128h-573q-27 0 -27 27v28q0 27 27 27h573q231 0 231 232v1069q0 27 28 27h27q28 0 28 -27v-1156q0 -60 38 -97q49 -48 131 -48h65v-82zM440 320q-27 0 -27 27v872q0 27 27 27h28q26 0 26 -27v-872
q0 -27 -26 -27h-28z" />
    <glyph glyph-name="ShaddaDammatan" unicode="&#x651;&#x64c;" arabic-form="isolated" 
d="M265 1851q23 0 39 16t16 38q0 23 -16 39t-39 16q-22 0 -38 -16q-17 -16 -17 -39q0 -22 17 -38q16 -16 38 -16zM265 2005q45 0 77 -33q32 -32 32 -77t-32 -77t-77 -32h-199q-18 0 -25 16l-39 87q-2 5 -2 9t2 8q2 9 11 12l10 5q4 2 8 2q5 0 9 -2q9 -2 13 -11l31 -71h88
q-16 29 -16 54q0 45 32 77q32 33 77 33zM334 1704q22 0 22 -22v-84q0 -41 -29 -69q-28 -29 -68 -29q-43 0 -71 31q-30 -31 -71 -31t-70 29q-29 28 -29 69v84q0 22 22 22h12q21 0 21 -22v-84q0 -18 13 -31q13 -12 31 -12t30 12q13 13 13 31v84q0 22 22 22h11q21 0 21 -22v-84
q0 -18 14 -31q13 -12 31 -12t30 12q12 13 12 31v84q0 22 23 22h10z" />
    <glyph glyph-name="ShaddaKasratan" unicode="&#x651;&#x64d;" arabic-form="isolated" 
d="M312 1555q22 0 22 -22v-11q0 -22 -22 -22h-275q-22 0 -22 22v11q0 22 22 22h275zM312 1678q22 0 22 -22v-11q0 -22 -22 -22h-275q-22 0 -22 22v11q0 22 22 22h275zM328 1960q21 0 21 -22v-88q0 -41 -30 -71q-29 -30 -71 -30t-74 33q-30 -33 -73 -33q-42 0 -71 30
q-30 30 -30 71v88q0 22 23 22h10q22 0 22 -22v-88q0 -19 13 -32q14 -14 33 -14t33 14q13 13 13 32v88q0 22 22 22h11q22 0 22 -22v-88q0 -19 14 -32q13 -14 32 -14t33 14q13 13 13 32v88q0 22 22 22h12z" />
    <glyph glyph-name="ShaddaFatha" unicode="&#x651;&#x64e;" arabic-form="isolated" 
d="M36 1793q-21 0 -21 22v11q0 22 21 22h282q22 0 22 -22v-11q0 -22 -22 -22h-282zM333 1714q21 0 21 -22v-90q0 -42 -29 -72q-30 -30 -72 -30q-45 0 -76 33q-30 -33 -75 -33q-43 0 -72 30q-30 30 -30 72v90q0 22 21 22h11q23 0 23 -22v-90q0 -20 13 -33q14 -14 34 -14
q19 0 33 14q15 14 15 33v90q0 22 22 22h10q23 0 23 -22v-90q0 -20 14 -33q14 -14 34 -14q19 0 33 14t14 33v90q0 22 22 22h11z" />
    <glyph glyph-name="ShaddaDamma" unicode="&#x651;&#x64f;" arabic-form="isolated" 
d="M176 1887q0 -17 13 -30q12 -12 30 -12q17 0 30 12q12 13 12 30t-12 30q-13 12 -30 12q-18 0 -30 -12q-13 -13 -13 -30zM44 1790q-23 0 -23 22v11q0 22 23 22h88q-11 20 -11 42q0 40 29 69q29 28 69 28t69 -28q28 -29 28 -69t-28 -69q-29 -28 -69 -28h-175zM316 1704
q21 0 21 -22v-84q0 -41 -28 -69q-29 -29 -69 -29q-42 0 -71 31q-29 -31 -70 -31t-70 29q-29 28 -29 69v84q0 22 21 22h12q22 0 22 -22v-84q0 -18 13 -31q13 -12 31 -12q17 0 30 12q12 13 12 31v84q0 22 22 22h12q21 0 21 -22v-84q0 -18 13 -31q13 -12 31 -12t30 12
q13 13 13 31v84q0 22 22 22h11z" />
    <glyph glyph-name="ShaddaKasra" unicode="&#x651;&#x650;" arabic-form="isolated" 
d="M324 1555q22 0 22 -22v-11q0 -22 -22 -22h-287q-22 0 -22 22v11q0 22 22 22h287zM339 1848q23 0 23 -22v-91q0 -43 -31 -73q-30 -31 -73 -31q-47 0 -77 34q-31 -34 -77 -34q-43 0 -74 31q-30 30 -30 73v91q0 22 22 22h11q22 0 22 -22v-91q0 -20 14 -35q14 -14 35 -14
q20 0 35 14q15 15 15 35v91q0 22 21 22h11q22 0 22 -22v-91q0 -20 15 -35q14 -14 35 -14q20 0 35 14q14 15 14 35v91q0 22 21 22h11z" />
    <glyph glyph-name="Llah" unicode="&#xfedf;&#xfee0;&#xfeea;" horiz-adv-x="2242" arabic-form="isolated" 
d="M1410 1623q-27 0 -27 28v135q0 27 27 27t27 -27v-135q0 -28 -27 -28zM1336 1349q-42 0 -71 29q-30 30 -30 72v83q0 27 27 27q28 0 28 -27v-83q0 -19 13 -33q14 -14 33 -14t33 14q13 14 13 33v83q0 27 28 27q27 0 27 -27v-83q0 -19 14 -33t33 -14t33 14t14 33v83
q0 27 27 27t27 -27v-83q0 -42 -29 -72q-30 -29 -72 -29q-44 0 -74 32q-31 -32 -74 -32zM814 552q0 131 -93 224q-93 92 -224 92q-130 0 -223 -92q-93 -93 -93 -224v-154q0 -130 93 -223t223 -93h317v470zM2055 1410q27 0 27 -27v-1156q0 -105 -61 -167q-61 -60 -167 -60
h-218q-137 0 -202 66q-9 9 -21 24q-11 -19 -24 -30q-61 -60 -165 -60h-727q-164 0 -280 117q-117 117 -117 281v154q0 164 117 281q116 117 280 117q165 0 282 -117t117 -281v-470h331q68 0 105 36q38 39 38 109v992q0 28 26 28h28q27 0 27 -28v-1020q0 -47 28 -75
q40 -42 141 -42h238q67 0 106 36q37 37 37 109v1156q0 27 26 27h28z" />
    <glyph glyph-name="Hamza" unicode="&#x621;" horiz-adv-x="891" arabic-form="isolated" 
d="M703 82q28 0 28 -27v-28q0 -27 -28 -27h-575q-28 0 -28 27v28q0 27 28 27h109v248q0 101 72 172q71 72 172 72q73 0 134 -41q61 -40 91 -108l5 -13q3 -7 3 -13q0 -15 -18 -22l-25 -11q-5 -2 -11 -2q-5 0 -10 2q-11 3 -15 14l-5 13q-43 99 -149 99q-67 0 -114 -48
q-47 -47 -47 -114v-248h383z" />
    <glyph glyph-name="AlefMadda" unicode="&#x622;" horiz-adv-x="517" arabic-form="isolated" 
d="M303 27q0 -27 -27 -27h-28q-26 0 -26 27v1357q0 27 26 27h28q27 0 27 -27v-1357zM75 1561q-15 8 -15 21q0 8 5 17l2 2q32 55 96 59h7q36 0 103 -18q50 -14 82 -14q34 0 47 16l2 2q9 12 20 12q9 0 18 -8l5 -3q9 -7 10 -18v-3q0 -10 -6 -17l-1 -2q-31 -38 -96 -38
q-41 0 -96 15q-57 15 -84 15h-6q-33 -1 -50 -29v-2q-10 -16 -22 -16q-8 0 -16 6z" />
    <glyph glyph-name="AlefHamzaAbove" unicode="&#x623;" horiz-adv-x="452" arabic-form="isolated" 
d="M240 1411q26 0 26 -27v-1357q0 -27 -26 -27h-27q-28 0 -28 27v1357q0 27 28 27h27zM365 1647q27 0 27 -27v-6q0 -27 -27 -27h-278q-27 0 -27 27v6q0 27 27 27h41v114q0 54 38 93q38 38 93 38q86 0 120 -80v-2q3 -5 3 -11q0 -5 -2 -10q-3 -11 -14 -15l-5 -2q-5 -2 -11 -2
q-5 0 -10 2q-11 4 -15 14l-1 3q-17 43 -65 43q-30 0 -50 -21q-21 -20 -21 -50v-114h177z" />
    <glyph glyph-name="WawHamzaAbove" unicode="&#x624;" horiz-adv-x="1087" arabic-form="isolated" 
d="M383 1180q-28 0 -28 27v5q0 28 28 28h41v114q0 54 38 92q38 39 93 39q86 0 121 -80l1 -3q2 -5 2 -10t-2 -11q-6 -10 -14 -15l-6 -1q-8 -3 -14 -3q-14 0 -22 17l-1 2q-18 44 -65 44q-29 0 -50 -21t-21 -50v-114h178q27 0 27 -28v-5q0 -27 -27 -27h-279zM845 551
q0 131 -93 224t-223 93q-131 0 -224 -93t-93 -224v-153q0 -131 93 -224q93 -92 224 -92h316v469zM529 949q165 0 281 -116q117 -117 117 -282v-609q0 -150 -110 -260q-109 -109 -259 -109h-178q-27 0 -27 27v28q0 27 27 27h178q116 0 202 85q85 85 85 202v58h-316
q-165 0 -282 117q-117 116 -117 281v153q0 165 117 282q117 116 282 116z" />
    <glyph glyph-name="AlefHamzaBelow" unicode="&#x625;" horiz-adv-x="453" arabic-form="isolated" 
d="M212 0q-27 0 -27 27v1356q0 28 27 28h28q27 0 27 -28v-1356q0 -27 -27 -27h-28zM365 -409q28 0 28 -27v-5q0 -28 -28 -28h-278q-27 0 -27 28v5q0 27 27 27h41v114q0 54 38 93q39 38 93 38q86 0 120 -79l1 -3q3 -6 3 -11t-3 -10q-3 -12 -13 -15l-6 -2q-5 -2 -11 -2
q-5 0 -10 2q-11 4 -15 15l-1 2q-17 43 -65 43q-30 0 -50 -21q-21 -20 -21 -50v-114h177z" />
    <glyph glyph-name="YehHamzaAbove" unicode="&#x626;" horiz-adv-x="1946" arabic-form="isolated" 
d="M236 789q-27 0 -27 27v6q0 27 27 27h41v114q0 54 38 93q38 38 92 38q87 0 121 -80l1 -3q2 -5 2 -10t-2 -11q-4 -10 -14 -14l-5 -2q-8 -4 -15 -4q-14 0 -21 18l-1 2q-18 44 -66 44q-29 0 -50 -21q-20 -20 -20 -50v-114h177q28 0 28 -27v-6q0 -27 -28 -27h-278zM1489 950
q127 0 217 -89q90 -90 90 -217v-344q0 -27 -28 -27h-27q-27 0 -27 27v344q0 93 -66 158q-66 66 -159 66q-92 0 -158 -66t-66 -158v-803q0 -17 -12 -29t-29 -12h-715q-169 0 -289 119q-120 120 -120 291q0 117 62 219q63 101 167 155l12 6q6 3 13 3q4 0 8 -1q10 -3 16 -14
l12 -24q4 -9 4 -16q0 -13 -15 -21l-13 -6q-84 -43 -134 -125t-50 -176q0 -136 96 -233q95 -94 232 -94h673v761q0 127 90 217q90 89 216 89z" />
    <glyph glyph-name="Alef" unicode="&#x627;" horiz-adv-x="411" arabic-form="isolated" 
d="M251 27q0 -27 -26 -27h-28q-27 0 -27 27v1357q0 27 27 27h28q26 0 26 -27v-1357z" />
    <glyph glyph-name="Beh" unicode="&#x628;" horiz-adv-x="1612" arabic-form="isolated" 
d="M1424 910q28 0 28 -27v-656q0 -106 -62 -166q-61 -61 -165 -61h-716q-169 0 -289 119q-120 121 -120 291q0 117 62 219t167 155l12 6q7 3 13 3q4 0 8 -1q11 -4 16 -14l12 -24q3 -7 3 -12t-2 -9q-3 -11 -12 -16l-13 -6q-84 -43 -134 -125q-49 -82 -49 -176q0 -138 95 -232
q96 -96 231 -96h715q71 0 108 37q37 36 37 108v656q0 27 28 27h27zM860 -187q34 0 34 -34v-83q0 -14 -10 -24t-24 -10h-27q-35 0 -35 34v83q0 34 35 34h27z" />
    <glyph glyph-name="TehMarbuta" unicode="&#x629;" horiz-adv-x="1077" arabic-form="isolated" 
d="M835 552q0 130 -93 223t-223 93q-131 0 -224 -93q-93 -92 -93 -223v-154q0 -131 93 -223q93 -93 224 -93q130 0 223 93q93 92 93 223v154zM519 950q164 0 281 -117t117 -281v-154q0 -164 -117 -281t-281 -117q-165 0 -282 117t-117 281v154q0 164 117 281t282 117z
M368 1185q-34 0 -34 34v83q0 34 34 34h27q35 0 35 -34v-83q0 -34 -35 -34h-27zM641 1185q-34 0 -34 34v83q0 34 34 34h27q35 0 35 -34v-83q0 -34 -35 -34h-27z" />
    <glyph glyph-name="Teh" unicode="&#x62a;" horiz-adv-x="1611" arabic-form="isolated" 
d="M1424 910q27 0 27 -27v-656q0 -107 -61 -166q-61 -61 -165 -61h-716q-169 0 -290 119q-119 121 -119 291q0 117 62 219t167 155l12 6q6 3 13 3q3 0 7 -1q12 -3 16 -14l13 -24q3 -6 3 -11t-2 -10q-4 -11 -12 -16l-13 -6q-84 -43 -135 -125q-50 -82 -50 -176
q0 -136 96 -233q96 -94 232 -94h715q72 0 108 36q37 36 37 108v656q0 27 28 27h27zM723 995q-34 0 -34 34v83q0 34 34 34h27q34 0 34 -34v-83q0 -34 -34 -34h-27zM996 995q-34 0 -34 34v83q0 34 34 34h28q33 0 33 -34v-83q0 -34 -33 -34h-28z" />
    <glyph glyph-name="Theh" unicode="&#x62b;" horiz-adv-x="1602" arabic-form="isolated" 
d="M1424 910q28 0 28 -27v-656q0 -106 -62 -166q-61 -61 -165 -61h-716q-169 0 -290 119q-119 121 -119 291q0 117 62 219q62 101 167 155l12 6q6 3 13 3q3 0 7 -1q11 -3 17 -14l12 -24q3 -7 3 -12t-2 -9q-4 -12 -12 -16l-13 -6q-84 -43 -134 -125t-50 -176q0 -137 96 -233
q95 -94 231 -94h716q70 0 108 36q36 37 36 108v656q0 27 28 27h27zM723 995q-34 0 -34 34v83q0 34 34 34h27q14 0 25 -10q10 -10 10 -24v-83q0 -34 -35 -34h-27zM996 995q-34 0 -34 34v83q0 34 34 34h28q34 0 34 -34v-83q0 -34 -34 -34h-28zM860 1223q-34 0 -34 34v83
q0 34 34 34h27q34 0 34 -34v-83q0 -34 -34 -34h-27z" />
    <glyph glyph-name="Jeem" unicode="&#x62c;" horiz-adv-x="1235" arabic-form="isolated" 
d="M635 950q182 0 311 -129t129 -310v-196q0 -150 -82 -233q-83 -82 -233 -82h-392q-90 0 -141 -68q-45 -60 -45 -145q0 -88 62 -151q63 -62 151 -62h89q26 0 26 -27v-28q0 -27 -26 -27h-89q-122 0 -208 87q-87 86 -87 208q0 128 76 212q75 84 192 84h392q232 0 232 232v196
q0 147 -105 252q-104 105 -252 105q-210 0 -328 -167l-8 -11q-9 -14 -21 -14q-8 0 -17 7l-22 16q-10 6 -12 18v3q0 9 5 17l8 11q66 94 172 148t223 54zM637 -154q34 0 34 -34v-83q0 -34 -34 -34h-28q-34 0 -34 34v83q0 34 34 34h28z" />
    <glyph glyph-name="Hah" unicode="&#x62d;" horiz-adv-x="1234" arabic-form="isolated" 
d="M635 950q181 0 310 -129t129 -310v-196q0 -150 -82 -233q-82 -82 -232 -82h-393q-89 0 -141 -68q-45 -60 -45 -145q0 -88 63 -151q63 -62 150 -62h88q28 0 28 -27v-28q0 -27 -28 -27h-88q-122 0 -208 87q-86 86 -86 208q0 128 75 212q76 84 192 84h393q232 0 232 232v196
q0 148 -105 252q-105 105 -252 105q-212 0 -328 -167l-8 -11q-10 -13 -22 -13q-8 0 -17 6l-22 16q-10 6 -12 18v4q0 8 5 16l8 11q66 94 172 148t224 54z" />
    <glyph glyph-name="Khah" unicode="&#x62e;" horiz-adv-x="1235" arabic-form="isolated" 
d="M635 950q181 0 311 -129q129 -129 129 -310v-196q0 -150 -82 -233q-83 -82 -233 -82h-392q-90 0 -141 -68q-45 -60 -45 -145q0 -88 62 -151q63 -62 150 -62h90q26 0 26 -27v-28q0 -27 -26 -27h-90q-122 0 -208 87q-86 86 -86 208q0 128 76 212q75 84 192 84h392
q232 0 232 232v196q0 148 -105 252q-105 105 -252 105q-210 0 -328 -167l-8 -11q-10 -13 -21 -13q-9 0 -18 6l-21 16q-11 6 -12 18v4q0 8 5 16l8 11q66 94 172 148t223 54zM603 1185q-34 0 -34 34v83q0 34 34 34h27q35 0 35 -34v-83q0 -34 -35 -34h-27z" />
    <glyph glyph-name="Dal" unicode="&#x62f;" horiz-adv-x="1008" arabic-form="isolated" 
d="M128 0q-28 0 -28 27v28q0 27 28 27h405q124 0 178 48q55 48 55 157v327q0 105 -75 180q-74 74 -179 74q-141 0 -215 -52l-10 -8q-8 -5 -16 -5h-5q-11 2 -18 11l-16 23q-4 6 -4 14v6q1 9 11 17l11 9q95 67 262 67q139 0 237 -98q99 -99 99 -238v-327q0 -287 -315 -287
h-405z" />
    <glyph glyph-name="Thal" unicode="&#x630;" horiz-adv-x="1007" arabic-form="isolated" 
d="M512 950q138 0 237 -98q98 -98 98 -237v-328q0 -287 -315 -287h-405q-27 0 -27 27v28q0 28 27 28h405q124 0 179 47q55 48 55 157v328q0 105 -75 179q-74 74 -179 74q-143 0 -215 -52l-11 -8q-8 -5 -16 -5h-4q-12 3 -18 11l-16 23q-5 7 -5 15v5q2 11 12 18l11 8
q94 67 262 67zM485 1185q-34 0 -34 34v83q0 34 34 34h27q35 0 35 -34v-83q0 -34 -35 -34h-27z" />
    <glyph glyph-name="Reh" unicode="&#x631;" horiz-adv-x="510" arabic-form="isolated" 
d="M-33 -427q-27 0 -27 27v28q0 27 27 27h69q232 0 232 232v995q0 27 28 27h27q27 0 27 -27v-995q0 -150 -82 -232t-232 -82h-69z" />
    <glyph glyph-name="Zain" unicode="&#x632;" horiz-adv-x="518" arabic-form="isolated" 
d="M324 909q27 0 27 -27v-994q0 -150 -82 -233q-83 -82 -233 -82h-67q-29 0 -29 27v28q0 27 29 27h67q234 0 234 233v994q0 27 26 27h28zM297 1185q-34 0 -34 34v83q0 34 34 34h27q35 0 35 -34v-83q0 -34 -35 -34h-27z" />
    <glyph glyph-name="Seen" unicode="&#x633;" horiz-adv-x="2080" arabic-form="isolated" 
d="M1893 910q27 0 27 -27v-655q0 -106 -61 -167q-60 -61 -165 -61h-90q-135 0 -201 66q-11 10 -21 25q-12 -17 -24 -30q-60 -61 -165 -61h-277q-19 -152 -134 -256q-117 -104 -272 -104q-170 0 -290 120t-120 290v449q0 27 27 27h28q27 0 27 -27v-449q0 -136 96 -232
t232 -96q135 0 231 96t96 232v833q0 27 27 27h27q28 0 28 -27v-800h273q73 0 108 36q37 36 37 109v601q0 27 28 27h27q27 0 27 -27v-629q0 -49 28 -76q42 -41 145 -41h101q73 0 108 36q37 38 37 109v655q0 27 28 27h27z" />
    <glyph glyph-name="Sheen" unicode="&#x634;" horiz-adv-x="2080" arabic-form="isolated" 
d="M1892 910q28 0 28 -27v-655q0 -107 -61 -167q-61 -61 -165 -61h-90q-135 0 -202 66q-12 11 -20 25q-12 -17 -24 -30q-61 -61 -165 -61h-278q-18 -152 -134 -256t-272 -104q-169 0 -289 120t-120 290v449q0 27 27 27h27q27 0 27 -27v-449q0 -136 96 -232t232 -96
q135 0 231 96t96 232v833q0 27 28 27h27q28 0 28 -27v-800h272q73 0 108 36q38 36 38 109v601q0 27 27 27h27q28 0 28 -27v-629q0 -49 27 -76q43 -41 144 -41h102q73 0 108 36q38 37 38 109v655q0 27 27 27h27zM1228 1186q-35 0 -35 34v83q0 34 35 34h28q33 0 33 -34v-83
q0 -34 -33 -34h-28zM1501 1186q-34 0 -34 34v83q0 34 34 34h27q34 0 34 -34v-83q0 -34 -34 -34h-27zM1364 1414q-34 0 -34 34v83q0 34 34 34h28q13 0 24 -10q10 -10 10 -24v-83q0 -34 -34 -34h-28z" />
    <glyph glyph-name="Sad" unicode="&#x635;" horiz-adv-x="1948" arabic-form="isolated" 
d="M1755 511q0 213 -125 303q-76 54 -177 54q-216 0 -530 -344l-4 -6v-436h604q232 0 232 232v197zM1453 950q174 0 279 -120q106 -119 106 -319v-197q0 -149 -83 -232q-82 -82 -232 -82h-607q-18 -153 -134 -256q-117 -105 -272 -105q-170 0 -290 120t-120 290v449
q0 27 27 27h28q28 0 28 -27v-449q0 -136 95 -232q96 -96 232 -96q135 0 231 96t96 232v806q0 28 28 28h27q27 0 27 -28v-218q305 313 534 313z" />
    <glyph glyph-name="Dad" unicode="&#x636;" horiz-adv-x="1997" arabic-form="isolated" 
d="M1755 511q0 213 -125 303q-76 54 -178 54q-129 0 -283 -104.5t-246 -226.5l-4 -5v-450h603q233 0 233 232v197zM1452 950q175 0 280 -120q105 -119 105 -319v-197q0 -149 -82 -232q-83 -82 -233 -82h-606q-19 -153 -134 -256q-116 -105 -272 -105q-170 0 -290 120
t-120 290v449q0 27 27 27h28q27 0 27 -27v-449q0 -136 96 -232t232 -96q135 0 231 96t96 232v806q0 28 28 28h26q28 0 28 -28v-205q302 300 533 300zM1310 1185q-35 0 -35 34v83q0 14 10 24q11 10 25 10h26q35 0 35 -34v-83q0 -34 -35 -34h-26z" />
    <glyph glyph-name="Tah" unicode="&#x637;" horiz-adv-x="1511" arabic-form="isolated" 
d="M1270 511q0 213 -125 303q-76 55 -177 55q-218 0 -530 -345l-4 -6v-436h603q233 0 233 232v197zM968 950q175 0 279 -120q104 -119 104 -319v-197q0 -149 -82 -231q-82 -83 -232 -83h-910q-27 0 -27 28v27q0 27 27 27h226v1301q0 28 26 28h28q27 0 27 -28v-746
q307 313 534 313z" />
    <glyph glyph-name="Zah" unicode="&#x638;" horiz-adv-x="1511" arabic-form="isolated" 
d="M1270 511q0 213 -125 303q-76 55 -178 55q-219 0 -529 -345l-4 -6v-436h603q233 0 233 232v197zM967 950q175 0 280 -120q104 -119 104 -319v-197q0 -149 -82 -231q-82 -83 -232 -83h-910q-27 0 -27 28v27q0 27 27 27h226v1301q0 28 26 28h28q27 0 27 -28v-745
q307 312 533 312zM824 1185q-34 0 -34 34v83q0 34 34 34h28q34 0 34 -34v-83q0 -34 -34 -34h-28z" />
    <glyph glyph-name="Ain" unicode="&#x639;" horiz-adv-x="1333" arabic-form="isolated" 
d="M1145 82q28 0 28 -27v-28q0 -27 -28 -27h-778q-89 0 -141 -68q-45 -60 -45 -145q0 -88 63 -151t150 -63h143q28 0 28 -27v-26q0 -28 -28 -28h-143q-122 0 -208 87q-86 86 -86 208q0 128 75 212q76 83 192 83h103q-96 92 -96 246v224q0 164 117 281t281 117
q212 0 351 -235l7 -12q5 -9 5 -16q0 -12 -14 -21l-24 -15q-8 -4 -15 -4q-13 0 -23 15l-7 11q-114 195 -280 195q-131 0 -223 -92q-93 -93 -93 -224v-224q0 -97 54 -168q59 -78 155 -78h480z" />
    <glyph glyph-name="Ghain" unicode="&#x63a;" horiz-adv-x="1333" arabic-form="isolated" 
d="M1145 82q28 0 28 -27v-28q0 -27 -28 -27h-778q-89 0 -140 -68q-45 -60 -45 -145q0 -88 62 -151q63 -63 151 -63h143q27 0 27 -27v-26q0 -28 -27 -28h-143q-122 0 -208 87q-87 86 -87 208q0 128 76 212q75 83 191 83h102q-95 94 -95 246v224q0 165 117 281
q117 117 282 117q211 0 350 -235l8 -12q4 -8 4 -15q0 -13 -14 -22l-24 -15q-8 -5 -16 -5q-13 0 -21 16l-8 11q-114 195 -279 195q-131 0 -223 -92q-93 -93 -93 -224v-224q0 -97 53 -168q59 -78 155 -78h480zM733 1185q-35 0 -35 34v83q0 14 11 24q10 10 24 10h27
q14 0 24 -10q11 -10 11 -24v-83q0 -34 -35 -34h-27z" />
    <glyph glyph-name="Feh" unicode="&#x641;" horiz-adv-x="2194" arabic-form="isolated" 
d="M1952 82v470q0 131 -93 224q-93 92 -224 92q-130 0 -223 -92q-93 -93 -93 -224v-154q0 -130 93 -223t223 -93h317zM509 0q-170 0 -288 120q-121 118 -121 289q0 117 62 219q63 103 167 156l12 6q5 3 11 3q5 0 10 -2q10 -3 16 -13l12 -24q4 -6 4 -12q0 -5 -2 -9
q-3 -10 -14 -16l-12 -6q-84 -43 -134 -125t-50 -177q0 -136 96 -231q95 -96 231 -96h885q-156 120 -156 316v154q0 164 117 281q116 117 280 117q165 0 282 -117t117 -281v-511q0 -17 -12 -29t-30 -12h-1483zM1625 1336q34 0 34 -34v-83q0 -34 -34 -34h-28q-34 0 -34 34v83
q0 34 34 34h28z" />
    <glyph glyph-name="Qaf" unicode="&#x642;" horiz-adv-x="1461" arabic-form="isolated" 
d="M1220 551q0 131 -93 224t-224 93t-224 -93q-92 -93 -92 -224v-153q0 -131 92 -224q93 -92 224 -92h317v469zM903 949q165 0 282 -116q116 -117 116 -282v-598q0 -150 -109 -259q-110 -110 -260 -110h-422q-169 0 -290 120q-120 121 -120 290v286q0 27 28 27h27
q28 0 28 -27v-286q0 -135 96 -231q95 -96 231 -96h422q117 0 202 85q86 85 86 201v47h-317q-164 0 -281 117q-116 116 -116 281v153q0 165 116 282q117 116 281 116zM746 1185q-34 0 -34 34v83q0 34 34 34h28q13 0 24 -10q10 -10 10 -24v-83q0 -34 -34 -34h-28zM1020 1185
q-35 0 -35 34v83q0 34 35 34h27q34 0 34 -34v-83q0 -34 -34 -34h-27z" />
    <glyph glyph-name="Kaf" unicode="&#x643;" horiz-adv-x="1584" arabic-form="isolated" 
d="M1397 1411q27 0 27 -27v-1157q0 -105 -62 -167q-60 -60 -165 -60h-688q-169 0 -290 119q-119 120 -119 291q0 117 62 219q63 101 167 155l12 6q6 3 12 3q4 0 8 -2q11 -3 17 -13l12 -24q4 -9 4 -16q0 -13 -15 -21l-13 -6q-84 -43 -134 -125t-50 -176q0 -136 95 -233
q97 -95 232 -95h687q73 1 109 36q37 40 37 109v1157q0 27 27 27h28zM678 740q-28 0 -28 27v6q0 27 28 27h41v114q0 54 38 93q39 38 93 38q86 0 121 -80l1 -2q2 -7 2 -13q0 -16 -17 -23l-6 -2q-8 -3 -14 -3q-14 0 -21 17l-1 2q-18 44 -65 44q-30 0 -51 -20q-21 -21 -21 -51
v-114h179q27 0 27 -27v-6q0 -27 -27 -27h-279z" />
    <glyph glyph-name="Lam" unicode="&#x644;" horiz-adv-x="1079" arabic-form="isolated" 
d="M220 -241q-120 120 -120 290v449q0 27 27 27h28q28 0 28 -27v-449q0 -136 96 -232q95 -96 231 -96q135 0 231 96t96 232v1334q0 28 28 28h28q26 0 26 -28v-1334q0 -170 -120 -290t-289 -120t-290 120z" />
    <glyph glyph-name="Meem" unicode="&#x645;" horiz-adv-x="1417" arabic-form="isolated" 
d="M1176 553q0 130 -93 223t-224 93q-130 0 -224 -93q-93 -93 -93 -223v-471h317q131 0 224 93t93 223v155zM859 951q164 0 281 -117t117 -281v-155q0 -164 -117 -281t-281 -117h-504q-72 0 -123 -50q-51 -51 -51 -122v-241q0 -27 -26 -27h-28q-27 0 -27 27v241
q0 105 75 180q74 74 180 74h106v471q0 164 117 281t281 117z" />
    <glyph glyph-name="Noon" unicode="&#x646;" horiz-adv-x="1079" arabic-form="isolated" 
d="M891 909q28 0 28 -27v-833q0 -170 -121 -290q-120 -120 -289 -120t-289 120t-120 290v449q0 27 27 27h27q27 0 27 -27v-449q0 -136 96 -232q97 -96 232 -96t232 96q96 96 96 232v833q0 27 27 27h27zM468 994q-34 0 -34 34v83q0 34 34 34h28q34 0 34 -34v-83
q0 -34 -34 -34h-28z" />
    <glyph glyph-name="Heh" unicode="&#x647;" horiz-adv-x="1056" arabic-form="isolated" 
d="M275 776q-93 -93 -93 -224v-154q0 -131 93 -223q92 -93 223 -93t224 93q92 93 92 224v153q0 131 -92 224q-93 92 -224 92t-223 -92zM217 117q-117 117 -117 282v153q0 165 117 281q117 117 281 117q165 0 281 -117q117 -116 117 -281v-153q0 -165 -117 -282
q-116 -117 -281 -117q-164 0 -281 117z" />
    <glyph glyph-name="Waw" unicode="&#x648;" horiz-adv-x="1086" arabic-form="isolated" 
d="M305 775q-93 -92 -93 -223v-154q0 -131 93 -224q92 -92 223 -92h316v470q0 131 -93 223q-92 93 -223 93t-223 -93zM379 -427q-27 0 -27 27v28q0 27 27 27h178q117 0 202 85t85 202v58h-316q-165 0 -281 116q-117 117 -117 282v154q0 164 117 281q116 117 281 117
t281 -117q117 -117 117 -281v-610q0 -150 -109 -259q-110 -110 -260 -110h-178z" />
    <glyph glyph-name="AlefMaqsura" unicode="&#x649;" horiz-adv-x="1956" arabic-form="isolated" 
d="M1489 950q127 0 217 -89q90 -90 90 -217v-344q0 -27 -28 -27h-27q-27 0 -27 27v344q0 93 -66 158q-66 66 -159 66q-92 0 -158 -66t-66 -158v-803q0 -17 -12 -29t-29 -12h-715q-169 0 -289 119q-120 120 -120 291q0 117 62 219q63 101 167 155l12 6q6 3 13 3q4 0 8 -1
q10 -3 16 -14l12 -24q3 -6 3 -13q0 -4 -1 -8q-4 -11 -13 -16l-13 -6q-84 -43 -134 -125t-50 -176q0 -136 96 -233q95 -94 232 -94h673v761q0 127 89 217q90 89 217 89z" />
    <glyph glyph-name="Yeh" unicode="&#x64a;" horiz-adv-x="1956" arabic-form="isolated" 
d="M1489 951q127 0 217 -90t90 -217v-343q0 -28 -28 -28h-27q-27 0 -27 28v343q0 93 -66 159t-159 66q-92 0 -158 -66t-66 -159v-803q0 -17 -12 -29t-29 -12h-715q-169 0 -289 120q-120 119 -120 290q0 117 62 219q63 102 167 155l12 6q6 3 13 3q4 0 8 -1q10 -3 16 -13
l12 -25q3 -6 3 -12q0 -4 -1 -8q-4 -11 -13 -17l-13 -6q-84 -42 -134 -124t-50 -177q0 -136 96 -232q95 -95 232 -95h673v761q0 127 89 217q90 90 217 90zM643 -400q34 0 34 -34v-83q0 -34 -34 -34h-27q-35 0 -35 34v83q0 34 35 34h27zM916 -400q34 0 34 -34v-83
q0 -34 -34 -34h-27q-35 0 -35 34v83q0 34 35 34h27z" />
    <glyph glyph-name="AlefMaddaFinl" unicode="&#x622;" horiz-adv-x="461" arabic-form="final" 
d="M429 0q-105 0 -165 61q-61 59 -61 166v1157q0 27 26 27h28q27 0 27 -27v-1157q0 -72 38 -108q35 -37 107 -37h62v-82h-62zM55 1561q-15 8 -15 21q0 7 5 16l2 2q32 56 96 59h10q35 0 100 -18q49 -13 81 -13q35 0 48 16l2 2q9 12 20 12q9 0 18 -8l5 -3q9 -7 10 -18v-3
q0 -10 -6 -18l-1 -2q-31 -38 -97 -38q-40 0 -95 15q-60 16 -87 16h-3q-33 -1 -50 -29v-3q-10 -15 -22 -15q-8 0 -16 6z" />
    <glyph glyph-name="AlefHamzaAboveFinl" unicode="&#x623;" horiz-adv-x="443" arabic-form="final" 
d="M392 1614q0 -27 -27 -27h-278q-27 0 -27 27v5q0 28 27 28h41v114q0 54 38 92q38 39 93 39q86 0 119 -80l1 -3q3 -5 3 -10t-3 -11q-3 -10 -14 -14l-5 -3q-5 -1 -10 -1t-10 1q-10 4 -16 15v2q-18 44 -65 44q-30 0 -51 -21q-20 -21 -20 -50v-114h177q27 0 27 -28v-5zM473 0
h-62q-104 0 -165 60q-62 63 -62 167v1157q0 27 27 27h28q28 0 28 -27v-1157q0 -72 37 -109q36 -36 107 -36h62v-82z" />
    <glyph glyph-name="WawHamzaAboveFinl" unicode="&#x624;" horiz-adv-x="1179" arabic-form="final" 
d="M382 1180q-27 0 -27 27v5q0 28 27 28h41v114q0 54 39 92q38 39 92 39q87 0 121 -80l1 -3q2 -5 2 -10t-2 -11q-4 -9 -14 -15l-6 -1q-8 -4 -15 -4q-14 0 -20 18l-2 2q-18 44 -65 44q-29 0 -50 -21t-21 -50v-114h178q27 0 27 -28v-5q0 -27 -27 -27h-279zM844 551
q0 131 -93 224q-92 93 -223 93t-224 -93q-92 -93 -92 -224v-153q0 -131 92 -224q93 -92 224 -92h316v469zM1209 82v-82h-283v-58q0 -150 -109 -260q-110 -109 -260 -109h-178q-27 0 -27 27v28q0 27 27 27h178q117 0 202 85t85 202v58h-316q-165 0 -281 117
q-117 116 -117 281v153q0 165 117 282q116 116 281 116q164 0 281 -116q117 -117 117 -282v-469h283z" />
    <glyph glyph-name="AlefHamzaBelowFinl" unicode="&#x625;" horiz-adv-x="450" arabic-form="final" 
d="M427 -409q26 0 26 -27v-5q0 -28 -26 -28h-280q-27 0 -27 28v5q0 27 27 27h41v114q0 54 38 93q39 38 93 38q86 0 121 -79l1 -3q2 -5 2 -11q0 -5 -2 -10q-4 -11 -14 -15l-6 -2q-5 -2 -10 -2t-11 2q-11 4 -15 15l-1 2q-18 43 -65 43q-29 0 -50 -21q-21 -20 -21 -50v-114h179
zM417 0q-104 0 -165 60q-61 62 -61 167v1157q0 27 28 27h26q28 0 28 -27v-1157q0 -72 37 -109q37 -36 107 -36h63v-82h-63z" />
    <glyph glyph-name="YehHamzaAboveFinl" unicode="&#x626;" horiz-adv-x="2004" arabic-form="final" 
d="M236 789q-28 0 -28 27v6q0 27 28 27h41v114q0 54 38 93q38 38 93 38q85 0 120 -80l1 -2q3 -5 3 -11q0 -5 -3 -11q-4 -10 -14 -14l-6 -2q-7 -3 -13 -3q-14 0 -22 17l-1 2q-18 44 -65 44q-30 0 -51 -21q-20 -20 -20 -50v-114h177q27 0 27 -27v-6q0 -27 -27 -27h-278z
M2034 0h-279q-17 0 -29 12t-12 29v603q0 92 -66 158t-159 66q-92 0 -158 -66t-66 -158v-803q0 -17 -12 -29t-29 -12h-715q-169 0 -289 120q-120 119 -120 290q0 117 62 219t167 155l12 6q6 3 13 3q4 0 8 -1q10 -3 16 -14l12 -24q3 -7 3 -14q0 -3 -1 -7q-4 -11 -13 -16
l-13 -6q-84 -43 -134 -125t-50 -176q0 -136 96 -232q95 -95 232 -96h673v762q0 127 89 217q90 89 217 89t217 -89q90 -90 90 -217v-562h238v-82z" />
    <glyph glyph-name="YehHamzaAboveInit" unicode="&#x626;" horiz-adv-x="631" arabic-form="initial" 
d="M523 1130q28 0 28 -27v-6q0 -27 -28 -27h-279q-27 0 -27 27v6q0 27 27 27h41v114q0 54 39 93q38 38 93 38q85 0 120 -80l1 -3q3 -5 3 -10t-3 -10q-3 -11 -14 -15l-5 -2q-8 -3 -14 -3q-14 0 -22 17l-2 3q-18 43 -64 43q-30 0 -51 -21q-20 -21 -20 -50v-114h177zM417 910
q28 0 28 -27v-656q0 -106 -62 -166q-61 -61 -165 -61h-238v82h240q70 1 106 36q37 37 37 108v657q0 27 27 27h27z" />
    <glyph glyph-name="YehHamzaAboveMedi" unicode="&#x626;" horiz-adv-x="638" arabic-form="medial" 
d="M262 1070q-28 0 -28 27v5q0 28 28 28h41v114q0 54 38 92q39 39 92 39q87 0 121 -80l2 -3q2 -5 2 -10t-2 -11q-5 -10 -15 -15l-5 -1q-8 -4 -15 -4q-14 0 -21 18l-1 2q-18 44 -66 44q-29 0 -50 -21t-21 -50v-114h179q27 0 27 -28v-5q0 -27 -27 -27h-279zM668 0h-49
q-136 0 -201 66q-12 11 -21 24q-10 -16 -24 -30q-61 -60 -165 -60h-228v82h230q69 0 106 36q37 38 37 109v655q0 27 27 27h27q28 0 28 -27v-683q0 -48 27 -75q42 -42 136 -42h70v-82z" />
    <glyph glyph-name="AlefFinl" unicode="&#x627;" horiz-adv-x="448" arabic-form="final" 
d="M396 0q-104 0 -165 61q-61 59 -61 166v1157q0 27 27 27h28q26 0 26 -27v-1157q0 -72 38 -108q36 -37 107 -37h82v-82h-82z" />
    <glyph glyph-name="BehFinl" unicode="&#x628;" horiz-adv-x="1656" arabic-form="final" 
d="M1686 0h-49q-136 0 -202 66q-6 5 -20 24q-11 -16 -24 -29q-62 -61 -166 -61h-715q-170 0 -289 120q-121 119 -121 290q0 117 63 219q62 101 166 155l13 6q5 3 12 3q4 0 9 -1q9 -4 16 -14l12 -24q3 -6 3 -12q0 -4 -2 -9q-3 -11 -13 -16l-12 -6q-84 -43 -134 -125t-50 -176
q0 -137 96 -232q95 -96 231 -96h714q72 0 110 37q36 36 36 108v655q0 27 27 27h27q28 0 28 -27v-682q0 -48 28 -76q41 -42 144 -42h62v-82zM860 -187q35 0 35 -34v-83q0 -34 -35 -34h-27q-13 0 -24 10q-10 10 -10 24v83q0 34 34 34h27z" />
    <glyph glyph-name="BehInit" unicode="&#x628;" horiz-adv-x="595" arabic-form="initial" 
d="M271 -187q34 0 34 -34v-83q0 -34 -34 -34h-28q-34 0 -34 34v83q0 34 34 34h28zM407 910q28 0 28 -28v-655q0 -106 -62 -167q-61 -60 -165 -60h-228v82h227q72 0 108 36q37 37 37 109v655q0 28 28 28h27z" />
    <glyph glyph-name="BehMedi" unicode="&#x628;" horiz-adv-x="638" arabic-form="medial" 
d="M668 0h-49q-135 0 -201 66q-6 5 -20 24q-10 -16 -24 -30q-62 -60 -166 -60h-228v82h230q69 0 106 36q36 36 36 109v655q0 27 28 27h27q28 0 28 -27v-682q0 -49 28 -76q41 -42 144 -42h61v-82zM407 -187q35 0 35 -34v-83q0 -34 -35 -34h-27q-14 0 -24 10t-10 24v83
q0 34 34 34h27z" />
    <glyph glyph-name="TehMarbutaFinl" unicode="&#x629;" horiz-adv-x="1141" arabic-form="final" 
d="M815 552q0 131 -93 224q-93 92 -223 92q-131 0 -224 -92q-93 -93 -93 -224v-154q0 -131 93 -223q93 -93 224 -93h316v470zM1191 82v-82h-692q-165 0 -282 117t-117 281v154q0 164 117 281t282 117q164 0 281 -117t117 -281v-470h294zM340 1185q-34 0 -34 34v83
q0 34 34 34h27q35 0 35 -34v-83q0 -34 -35 -34h-27zM613 1185q-34 0 -34 34v83q0 34 34 34h27q35 0 35 -34v-83q0 -34 -35 -34h-27z" />
    <glyph glyph-name="TehFinl" unicode="&#x62a;" horiz-adv-x="1655" arabic-form="final" 
d="M1685 0h-49q-135 0 -201 66q-11 9 -20 24q-11 -16 -24 -30q-62 -60 -166 -60h-715q-170 0 -290 120t-120 289q0 117 62 219q63 103 167 156l13 6q4 3 10 3q5 0 10 -2q10 -2 16 -13l13 -24q3 -7 3 -13q0 -4 -2 -8q-4 -12 -13 -16l-12 -6q-84 -43 -135 -125
q-50 -82 -50 -177q0 -137 97 -231q94 -96 231 -96h714q71 0 110 36q35 37 35 109v655q0 27 28 27h27q28 0 28 -27v-683q0 -49 27 -75q43 -42 145 -42h61v-82zM723 994q-34 0 -34 34v83q0 35 34 35h28q14 0 24 -11q10 -10 10 -24v-83q0 -34 -34 -34h-28zM997 994
q-34 0 -34 34v83q0 35 34 35h27q34 0 34 -35v-83q0 -34 -34 -34h-27z" />
    <glyph glyph-name="TehInit" unicode="&#x62a;" horiz-adv-x="683" arabic-form="initial" 
d="M298 1185q-34 0 -34 34v83q0 35 34 35h28q33 0 33 -35v-83q0 -34 -33 -34h-28zM598 1336q35 0 35 -34v-83q0 -34 -35 -34h-27q-14 0 -24 10t-10 24v83q0 34 34 34h27zM462 910q27 0 27 -27v-656q0 -106 -61 -166q-60 -61 -165 -61h-283v82h285q69 1 105 36q37 37 37 108
v657q0 27 28 27h27z" />
    <glyph glyph-name="TehMedi" unicode="&#x62a;" horiz-adv-x="693" arabic-form="medial" 
d="M723 0h-49q-135 0 -202 66q-11 9 -20 24q-16 -22 -23 -30q-63 -60 -166 -60h-283v82h284q69 0 106 36t37 109v655q0 27 28 27h26q28 0 28 -27v-683q0 -49 28 -75q41 -42 143 -42h63v-82zM298 1185q-34 0 -34 34v83q0 34 34 34h28q33 0 33 -34v-83q0 -34 -33 -34h-28z
M571 1185q-35 0 -35 34v83q0 14 11 24q10 10 24 10h27q34 0 34 -34v-83q0 -34 -34 -34h-27z" />
    <glyph glyph-name="ThehFinl" unicode="&#x62b;" horiz-adv-x="1655" arabic-form="final" 
d="M1685 0h-49q-135 0 -201 66q-11 9 -20 24q-11 -16 -24 -30q-62 -60 -166 -60h-715q-170 0 -290 120t-120 289q0 117 62 219q63 103 167 156l13 6q4 3 10 3q5 0 10 -2q11 -3 15 -13l14 -24q2 -6 2 -12q0 -5 -1 -9q-4 -11 -13 -16l-13 -6q-83 -43 -134 -125
q-50 -83 -50 -177q0 -136 96 -231q96 -96 232 -96h714q72 0 108 36q37 36 37 109v655q0 27 27 27h28q28 0 28 -27v-683q0 -49 27 -75q43 -42 145 -42h61v-82zM723 994q-34 0 -34 34v83q0 35 34 35h28q34 0 34 -35v-83q0 -34 -34 -34h-28zM996 994q-33 0 -33 34v83
q0 35 33 35h28q34 0 34 -35v-83q0 -34 -34 -34h-28zM860 1223q-35 0 -35 34v83q0 34 35 34h27q34 0 34 -34v-83q0 -34 -34 -34h-27z" />
    <glyph glyph-name="ThehInit" unicode="&#x62b;" horiz-adv-x="681" arabic-form="initial" 
d="M286 1185q-34 0 -34 34v83q0 35 34 35h28q34 0 34 -35v-83q0 -34 -34 -34h-28zM587 1336q34 0 34 -34v-83q0 -34 -34 -34h-27q-34 0 -34 34v83q0 34 34 34h27zM450 1565q35 0 35 -34v-83q0 -14 -10 -24q-11 -11 -25 -11h-27q-34 0 -34 35v83q0 34 34 34h27zM450 910
q28 0 28 -27v-656q0 -106 -61 -166q-61 -61 -165 -61h-272v82h273q69 1 105 36q38 37 38 108v657q0 27 27 27h27z" />
    <glyph glyph-name="ThehMedi" unicode="&#x62b;" horiz-adv-x="638" arabic-form="medial" 
d="M668 0h-49q-135 0 -201 66q-11 9 -20 24q-11 -16 -24 -30q-62 -60 -166 -60h-228v82h230q68 0 107 36q35 37 35 109v655q0 27 28 27h27q28 0 28 -27v-683q0 -49 27 -75q43 -42 145 -42h61v-82zM243 1185q-33 0 -33 34v83q0 34 33 34h28q33 0 33 -34v-83q0 -34 -33 -34
h-28zM516 1185q-34 0 -34 34v83q0 34 34 34h28q34 0 34 -34v-83q0 -34 -34 -34h-28zM380 1413q-35 0 -35 34v84q0 34 35 34h27q14 0 24 -10q11 -11 11 -24v-84q0 -34 -35 -34h-27z" />
    <glyph glyph-name="JeemFinl" unicode="&#x62c;" horiz-adv-x="1278" arabic-form="final" 
d="M1308 0h-50q-134 0 -201 66q-23 23 -36 53q-80 -119 -261 -119h-393q-89 0 -141 -68q-45 -60 -45 -145q0 -88 63 -151t150 -63h88q28 0 28 -27v-26q0 -28 -28 -28h-88q-122 0 -208 87q-86 86 -86 208q0 128 75 212q76 83 192 83h393q232 0 232 232v197q0 148 -105 253
q-105 104 -252 104q-212 0 -329 -167l-7 -11q-10 -13 -22 -13q-8 0 -17 6l-22 15q-10 8 -12 18v5q0 9 5 16l8 11q66 94 172 148t224 54q181 0 310 -129t129 -310v-312q0 -49 27 -75q43 -42 145 -42h62v-82zM636 -154q35 0 35 -34v-83q0 -14 -11 -24q-10 -11 -24 -11h-27
q-35 0 -35 35v83q0 34 35 34h27z" />
    <glyph glyph-name="JeemInit" unicode="&#x62c;" horiz-adv-x="1223" arabic-form="initial" 
d="M624 950q182 0 310 -129q129 -129 129 -311v-196q0 -150 -82 -232t-232 -82h-769v82h769q232 0 232 232v196q0 148 -105 253q-104 105 -252 105q-212 0 -328 -167l-8 -11q-10 -13 -22 -13q-8 0 -17 6l-21 16q-10 6 -12 18q-1 3 -1 6q0 7 5 14l9 11q66 94 172 148
q105 54 223 54zM524 -187q35 0 35 -34v-83q0 -34 -35 -34h-27q-34 0 -34 34v83q0 34 34 34h27z" />
    <glyph glyph-name="JeemMedi" unicode="&#x62c;" horiz-adv-x="1267" arabic-form="medial" 
d="M1297 0h-51q-132 0 -200 66q-22 23 -36 53q-80 -119 -261 -119h-769v82h769q232 0 232 232v197q0 148 -105 253q-104 104 -252 104q-210 0 -329 -167l-7 -11q-10 -13 -22 -13q-8 0 -17 6l-22 15q-9 8 -11 18q-1 3 -1 6q0 8 6 15l7 11q67 94 173 148t223 54
q182 0 310 -129q129 -129 129 -310v-312q0 -48 28 -75q42 -42 144 -42h62v-82zM525 -187q33 0 33 -34v-83q0 -34 -33 -34h-28q-34 0 -34 34v83q0 34 34 34h28z" />
    <glyph glyph-name="HahFinl" unicode="&#x62d;" horiz-adv-x="1279" arabic-form="final" 
d="M1309 0h-50q-136 0 -201 66q-24 25 -36 53q-80 -119 -262 -119h-392q-90 0 -141 -68q-44 -60 -44 -145q0 -88 62 -151t150 -63h89q26 0 26 -27v-26q0 -28 -26 -28h-89q-122 0 -208 87q-87 86 -87 208q0 128 76 212q76 83 192 83h392q233 0 233 232v197q0 148 -105 253
q-105 104 -253 104q-210 0 -329 -167l-7 -11q-9 -13 -21 -13q-8 0 -17 6l-22 15q-10 8 -12 18v4q0 10 5 17l8 11q66 94 172 148t223 54q182 0 310 -129q129 -129 129 -310v-312q0 -48 29 -75q40 -42 145 -42h60z" />
    <glyph glyph-name="HahInit" unicode="&#x62d;" horiz-adv-x="1223" arabic-form="initial" 
d="M623 950q181 0 311 -129q129 -129 129 -310v-196q0 -150 -83 -233q-82 -82 -232 -82h-768v82h768q233 1 233 232v197q0 148 -105 252q-105 105 -253 105q-210 0 -328 -167l-8 -11q-9 -14 -21 -14q-8 0 -17 7l-23 16q-9 7 -10 18q-1 3 -1 6q0 8 5 14l8 11q66 94 172 148
t223 54z" />
    <glyph glyph-name="HahMedi" unicode="&#x62d;" horiz-adv-x="1267" arabic-form="medial" 
d="M1297 0h-49q-136 0 -202 66q-24 24 -36 53q-80 -119 -261 -119h-769v82h769q232 0 232 232v197q0 148 -105 253q-105 104 -252 104q-211 0 -329 -168l-8 -10q-10 -13 -21 -13q-8 0 -17 6l-23 15q-8 8 -10 18q-1 4 -1 7q0 8 5 14l8 11q66 93 172 148q107 54 224 54
q181 0 310 -129t129 -310v-312q0 -48 28 -75q40 -42 142 -42h63z" />
    <glyph glyph-name="KhahFinl" unicode="&#x62e;" horiz-adv-x="1279" arabic-form="final" 
d="M1309 0h-50q-136 0 -201 66q-25 24 -36 53q-80 -119 -262 -119h-393q-89 0 -140 -68q-45 -60 -45 -145q0 -88 63 -151q62 -63 150 -63h88q28 0 28 -27v-26q0 -28 -28 -28h-88q-122 0 -208 87q-87 86 -87 208q0 128 76 212q75 83 191 83h393q232 0 232 232v197
q0 148 -104 253q-105 104 -253 104q-211 0 -328 -167l-8 -11q-10 -13 -21 -13q-9 0 -18 6l-22 15q-9 8 -11 18v6q0 8 4 15l8 11q66 94 173 148q106 54 223 54q182 0 311 -129t129 -310v-312q0 -49 27 -75q43 -42 145 -42h62v-82zM600 1185q-34 0 -34 34v83q0 34 34 34h27
q35 0 35 -34v-83q0 -34 -35 -34h-27z" />
    <glyph glyph-name="KhahInit" unicode="&#x62e;" horiz-adv-x="1223" arabic-form="initial" 
d="M624 950q181 0 310 -129t129 -310v-196q0 -150 -82 -233q-82 -82 -232 -82h-769v82h769q232 1 232 232v197q0 148 -105 252q-104 105 -252 105q-211 0 -329 -167l-8 -11q-10 -13 -21 -13q-8 0 -17 6l-23 16q-8 7 -10 18q-1 3 -1 6q0 8 5 14l8 11q66 94 172 148t224 54z
M588 1185q-34 0 -34 34v83q0 34 34 34h27q35 0 35 -34v-83q0 -34 -35 -34h-27z" />
    <glyph glyph-name="KhahMedi" unicode="&#x62e;" horiz-adv-x="1267" arabic-form="medial" 
d="M1297 0h-49q-135 0 -202 66q-23 23 -36 53q-80 -119 -261 -119h-769v82h769q232 0 232 232v197q0 148 -105 253q-104 104 -252 104q-211 0 -329 -168l-7 -10q-10 -13 -22 -13q-8 0 -17 6l-22 15q-9 8 -11 18q-1 4 -1 7q0 8 5 14l8 11q67 94 173 148t223 54
q182 0 310 -129q129 -129 129 -310v-312q0 -49 28 -75q42 -42 144 -42h62v-82zM585 1185q-34 0 -34 34v83q0 34 34 34h27q35 0 35 -34v-83q0 -34 -35 -34h-27z" />
    <glyph glyph-name="DalFinl" unicode="&#x62f;" horiz-adv-x="1052" arabic-form="final" 
d="M1081 0h-49q-120 0 -191 72q-18 17 -34 45q-72 -117 -275 -117h-405q-27 0 -27 27v28q0 27 27 27h405q124 0 178 48t54 157v327q0 105 -74 180q-75 74 -179 74q-143 0 -214 -52l-12 -8q-6 -5 -13 -5q-3 0 -7 1q-11 1 -18 10l-15 22q-6 8 -6 17v4q2 11 12 18l11 8
q95 67 262 67q139 0 237 -99q98 -98 98 -237v-387q0 -58 38 -97q48 -48 132 -48h64z" />
    <glyph glyph-name="ThalFinl" unicode="&#x630;" horiz-adv-x="1051" arabic-form="final" 
d="M1081 0h-49q-120 0 -191 72q-18 17 -34 45q-72 -117 -275 -117h-405q-27 0 -27 27v28q0 27 27 27h405q124 0 178 48t54 157v327q0 105 -74 180q-75 74 -179 74q-143 0 -214 -52l-12 -8q-6 -5 -13 -5q-3 0 -7 1q-11 1 -18 10l-15 22q-6 8 -6 17v4q2 11 12 18l11 8
q95 67 262 67q139 0 237 -99q98 -98 98 -237v-387q0 -58 38 -97q48 -48 132 -48h65v-82zM484 1185q-34 0 -34 34v83q0 34 34 34h27q35 0 35 -34v-83q0 -34 -35 -34h-27z" />
    <glyph glyph-name="RehFinl" unicode="&#x631;" horiz-adv-x="593" arabic-form="final" 
d="M638 0h-287v-113q0 -149 -82 -232q-83 -82 -233 -82h-68q-28 0 -28 27v28q0 27 28 27h68q234 0 234 232v994q0 27 26 27h28q27 0 27 -27v-799h287v-82z" />
    <glyph glyph-name="ZainFinl" unicode="&#x632;" horiz-adv-x="593" arabic-form="final" 
d="M638 0h-287v-113q0 -149 -82 -232q-83 -82 -233 -82h-69q-27 0 -27 27v28q0 27 27 27h69q232 0 232 232v994q0 27 28 27h27q28 0 28 -27v-799h287v-82zM296 1185q-34 0 -34 34v83q0 34 34 34h27q35 0 35 -34v-83q0 -34 -35 -34h-27z" />
    <glyph glyph-name="SeenFinl" unicode="&#x633;" horiz-adv-x="2123" arabic-form="final" 
d="M2153 0h-48q-120 0 -192 71q-15 17 -24 30q-13 -23 -30 -41q-62 -60 -166 -60h-90q-135 0 -201 65q-12 13 -20 25q-12 -19 -24 -30q-62 -60 -165 -60h-278q-18 -153 -134 -257t-272 -104q-169 0 -289 120t-120 290v448q0 28 27 28h28q26 0 26 -28v-448q0 -136 96 -232
q97 -96 232 -96t231 96q97 96 97 232v833q0 27 27 27h27q28 0 28 -27v-800h272q71 0 110 36q36 38 36 108v601q0 27 28 27h27q27 0 27 -27v-628q0 -48 28 -76q41 -41 143 -41h102q72 0 109 36q37 37 37 108v657q0 27 27 27h27q28 0 28 -27v-657q0 -58 38 -97q48 -47 131 -47
h64v-82z" />
    <glyph glyph-name="SeenInit" unicode="&#x633;" horiz-adv-x="1596" arabic-form="initial" 
d="M1409 911q27 0 27 -28v-656q0 -105 -62 -167q-60 -60 -165 -60h-89q-137 0 -202 66q-11 11 -20 24q-9 -14 -25 -30q-60 -60 -165 -60h-89q-136 0 -201 66q-7 7 -21 24q-8 -13 -24 -30q-61 -60 -165 -60h-228v82h230q70 1 106 36q37 37 37 109v656q0 28 26 28h28
q28 0 28 -28v-684q0 -48 28 -75q40 -42 144 -42h107q65 0 102 36q38 38 38 109v602q0 27 26 27h28q27 0 27 -27v-630q0 -47 28 -75q40 -42 143 -42h102q72 0 109 36q37 39 37 109v656q0 28 27 28h28z" />
    <glyph glyph-name="SeenMedi" unicode="&#x633;" horiz-adv-x="1640" arabic-form="medial" 
d="M1670 0h-48q-120 0 -192 72q-16 15 -24 29q-16 -26 -30 -41q-63 -60 -166 -60h-90q-135 0 -202 66q-12 12 -19 24q-14 -19 -24 -30q-61 -60 -167 -60h-88q-136 0 -202 66q-12 11 -20 24q-10 -16 -24 -30q-61 -60 -165 -60h-229v82h231q68 0 105 36q37 37 37 109v656
q0 28 28 28h26q28 0 28 -28v-684q0 -48 27 -75q43 -42 144 -42h109q64 0 102 36q37 37 37 109v602q0 27 28 27h26q28 0 28 -27v-630q0 -50 27 -75q42 -42 144 -42h102q72 0 108 36q37 36 37 109v656q0 28 28 28h26q28 0 28 -28v-656q0 -60 38 -97q49 -48 131 -48h65v-82z
" />
    <glyph glyph-name="SheenFinl" unicode="&#x634;" horiz-adv-x="2104" arabic-form="final" 
d="M2144 0h-53q-103 0 -191 87q-6 6 -17 19q-6 -26 -24 -46q-61 -60 -165 -60h-104q-137 0 -201 65q-4 4 -14 15q-5 -7 -17 -20q-61 -60 -165 -60h-278q-18 -153 -134 -257t-272 -104q-169 0 -289 120t-120 290v448q0 28 27 28h28q27 0 27 -28v-448q0 -136 96 -232t231 -96
q136 0 232 96t96 232v833q0 27 27 27h27q28 0 28 -27v-800h273q72 0 108 36q37 37 37 108v601q0 27 28 27h27q27 0 27 -27v-628q0 -49 28 -76q41 -41 144 -41h102q72 0 108 36q37 37 37 108v657q0 27 27 27h27q28 0 28 -27v-657q0 -58 38 -97q48 -47 131 -47h55v-82z
M1228 1185q-34 0 -34 34v83q0 34 34 34h27q34 0 34 -34v-83q0 -34 -34 -34h-27zM1501 1185q-35 0 -35 34v83q0 14 11 24q10 10 24 10h27q35 0 35 -34v-83q0 -34 -35 -34h-27zM1365 1413q-35 0 -35 34v83q0 34 35 34h27q34 0 34 -34v-83q0 -34 -34 -34h-27z" />
    <glyph glyph-name="SheenInit" unicode="&#x634;" horiz-adv-x="1596" arabic-form="initial" 
d="M1408 911q28 0 28 -28v-656q0 -105 -61 -167q-61 -60 -165 -60h-104q-135 0 -201 66q-13 14 -13 15q-11 -14 -18 -21q-60 -60 -167 -60h-101q-136 0 -201 66q-10 9 -14 15q-11 -14 -17 -21q-62 -60 -166 -60h-228v82h231q69 1 106 36q36 37 36 109v656q0 28 27 28h27
q28 0 28 -28v-684q0 -48 28 -75q41 -42 143 -42h108q64 0 103 36q37 37 37 109v602q0 27 27 27h27q27 0 27 -27v-630q0 -47 28 -75q41 -42 143 -42h102q72 0 109 36q37 38 37 109v656q0 28 28 28h26zM744 1185q-34 0 -34 34v83q0 34 34 34h28q34 0 34 -34v-83q0 -34 -34 -34
h-28zM1017 1185q-33 0 -33 34v83q0 34 33 34h28q34 0 34 -34v-83q0 -34 -34 -34h-28zM881 1413q-35 0 -35 34v84q0 13 11 24q10 10 24 10h27q34 0 34 -34v-84q0 -34 -34 -34h-27z" />
    <glyph glyph-name="SheenMedi" unicode="&#x634;" horiz-adv-x="1639" arabic-form="medial" 
d="M1669 0h-48q-120 0 -191 72q-16 15 -24 29q-14 -22 -31 -41q-62 -60 -166 -60h-90q-135 0 -201 66q-12 12 -20 24q-15 -22 -24 -30q-61 -60 -167 -60h-88q-136 0 -201 66q-12 11 -21 24q-9 -16 -24 -30q-61 -60 -165 -60h-228v82h230q68 0 106 36q36 37 36 109v656
q0 28 28 28h27q28 0 28 -28v-684q0 -48 26 -75q43 -42 144 -42h104q70 0 107 36q37 37 37 109v602q0 27 28 27h27q27 0 27 -27v-630q0 -49 27 -75q43 -42 144 -42h102q72 0 109 36q36 36 36 109v656q0 28 28 28h27q28 0 28 -28v-656q0 -60 37 -97q49 -48 132 -48h64v-82z
M744 1185q-34 0 -34 34v83q0 34 34 34h27q34 0 34 -34v-83q0 -34 -34 -34h-27zM1017 1185q-34 0 -34 34v83q0 34 34 34h28q33 0 33 -34v-83q0 -34 -33 -34h-28zM881 1413q-35 0 -35 34v84q0 13 10 24q11 10 25 10h26q35 0 35 -34v-84q0 -34 -35 -34h-26z" />
    <glyph glyph-name="SadFinl" unicode="&#x635;" horiz-adv-x="2042" arabic-form="final" 
d="M1756 511q0 213 -125 303q-76 54 -178 54q-228 0 -530 -331l-4 -5v-450h604q233 0 233 232v197zM2072 0h-49q-119 0 -192 72q-26 25 -39 56q-78 -128 -269 -128h-607q-18 -153 -134 -256q-116 -105 -272 -105q-169 0 -290 120q-120 120 -120 290v449q0 27 27 27h28
q28 0 28 -27v-449q0 -136 96 -232q95 -96 231 -96q135 0 232 96q96 96 96 232v806q0 28 27 28h28q26 0 26 -28v-205q304 300 534 300q175 0 279 -120q105 -119 105 -319v-284q0 -58 39 -97q47 -48 128 -48h67z" />
    <glyph glyph-name="SadInit" unicode="&#x635;" horiz-adv-x="1417" arabic-form="initial" 
d="M1176 511q0 213 -125 303q-76 55 -178 55q-219 0 -529 -345l-4 -6v-436h603q233 0 233 232v197zM873 950q175 0 280 -120q104 -119 104 -319v-197q0 -149 -82 -231q-82 -83 -232 -83h-963v82h278v773q0 28 27 28h27q28 0 28 -28v-217q306 312 533 312z" />
    <glyph glyph-name="SadMedi" unicode="&#x635;" horiz-adv-x="1462" arabic-form="medial" 
d="M1176 511q0 213 -125 303q-76 55 -177 55q-225 0 -530 -331l-4 -6v-450h604q232 0 232 232v197zM1492 0h-48q-120 0 -192 72q-24 24 -40 57q-77 -129 -268 -129h-964v82h278v773q0 28 28 28h27q27 0 27 -28v-205q302 300 534 300q175 0 280 -120q105 -119 105 -319v-284
q0 -59 37 -97q49 -48 129 -48h67v-82z" />
    <glyph glyph-name="DadFinl" unicode="&#x636;" horiz-adv-x="2041" arabic-form="final" 
d="M1755 511q0 213 -125 303q-76 54 -177 54q-226 0 -530 -331l-4 -5v-450h604q232 0 232 232v197zM2071 0h-48q-120 0 -192 72q-26 25 -40 56q-77 -128 -268 -128h-607q-18 -153 -134 -256q-117 -105 -272 -105q-170 0 -290 120t-120 290v449q0 27 27 27h28q28 0 28 -27
v-449q0 -136 95 -232q96 -96 232 -96q135 0 231 96t96 232v806q0 28 28 28h27q27 0 27 -28v-205q302 300 534 300q174 0 279 -120q105 -119 105 -319v-284q0 -59 38 -97q49 -48 129 -48h67v-82zM1310 1185q-35 0 -35 34v83q0 34 35 34h27q34 0 34 -34v-83q0 -34 -34 -34h-27
z" />
    <glyph glyph-name="DadInit" unicode="&#x636;" horiz-adv-x="1418" arabic-form="initial" 
d="M1176 511q0 213 -125 303q-76 55 -177 55q-229 0 -530 -331l-4 -6v-450h604q232 0 232 232v197zM874 950q174 0 279 -120q105 -119 105 -319v-197q0 -149 -82 -231q-83 -83 -232 -83h-964v82h278v773q0 28 28 28h27q27 0 27 -28v-205q303 300 534 300zM731 1185
q-35 0 -35 34v83q0 34 35 34h27q34 0 34 -34v-83q0 -34 -34 -34h-27z" />
    <glyph glyph-name="DadMedi" unicode="&#x636;" horiz-adv-x="1463" arabic-form="medial" 
d="M1177 511q0 213 -125 303q-76 55 -177 55q-130 0 -284 -105t-247 -226l-3 -6v-450h603q233 0 233 232v197zM1503 0h-59q-119 0 -192 72q-25 25 -39 57q-78 -129 -269 -129h-964v82h279v773q0 28 27 28h28q27 0 27 -28v-205q302 300 534 300q175 0 279 -120
q105 -119 105 -319v-284q0 -58 38 -97q48 -48 128 -48h77zM731 1185q-35 0 -35 34v83q0 14 11 24q10 10 24 10h28q34 0 34 -34v-83q0 -34 -34 -34h-28z" />
    <glyph glyph-name="TahFinl" unicode="&#x637;" horiz-adv-x="1557" arabic-form="final" 
d="M1270 511q0 213 -125 303q-76 55 -177 55q-216 0 -530 -345l-3 -6v-436h603q232 0 232 232v197zM1587 0h-48q-120 0 -193 72q-26 28 -40 57q-77 -129 -268 -129h-910q-28 0 -28 28v27q0 27 28 27h225v1301q0 28 27 28h27q28 0 28 -28v-746q306 313 533 313
q175 0 280 -120q105 -119 105 -319v-284q0 -59 37 -97q49 -48 129 -48h68v-82z" />
    <glyph glyph-name="TahInit" unicode="&#x637;" horiz-adv-x="1418" arabic-form="initial" 
d="M1177 511q0 213 -125 303q-76 55 -178 55q-217 0 -530 -345l-4 -6v-436h604q233 0 233 232v197zM874 950q175 0 279 -120q105 -119 105 -319v-197q0 -149 -82 -231q-83 -83 -232 -83h-964v82h279v1301q0 28 27 28h28q26 0 26 -28v-745q307 312 534 312z" />
    <glyph glyph-name="TahMedi" unicode="&#x637;" horiz-adv-x="1462" arabic-form="medial" 
d="M1176 511q0 213 -125 303q-76 55 -177 55q-218 0 -530 -345l-4 -6v-436h604q232 0 232 232v197zM1492 0h-48q-120 0 -192 72q-26 25 -40 57q-77 -129 -268 -129h-964v82h278v1301q0 28 28 28h27q27 0 27 -28v-746q306 313 534 313q174 0 279 -120q105 -119 105 -319v-284
q0 -59 38 -97q48 -48 129 -48h67v-82z" />
    <glyph glyph-name="ZahFinl" unicode="&#x638;" horiz-adv-x="1557" arabic-form="final" 
d="M1270 511q0 213 -125 303q-76 55 -177 55q-216 0 -530 -345l-3 -6v-436h603q232 0 232 232v197zM1587 0h-49q-119 0 -192 72q-26 25 -40 57q-77 -129 -268 -129h-911q-27 0 -27 28v27q0 27 27 27h226v1301q0 28 27 28h27q28 0 28 -28v-746q306 313 533 313
q175 0 279 -120q105 -119 105 -319v-284q0 -59 38 -97q49 -48 129 -48h68v-82zM825 1185q-34 0 -34 34v83q0 34 34 34h27q34 0 34 -34v-83q0 -34 -34 -34h-27z" />
    <glyph glyph-name="ZahInit" unicode="&#x638;" horiz-adv-x="1418" arabic-form="initial" 
d="M1177 511q0 213 -125 303q-76 55 -178 55q-220 0 -530 -345l-4 -6v-436h603q234 0 234 232v197zM874 950q175 0 279 -120q105 -119 105 -319v-197q0 -149 -82 -231q-83 -83 -233 -83h-963v82h278v1301q0 28 28 28h27q27 0 27 -28v-745q307 312 534 312zM731 1185
q-34 0 -34 34v83q0 34 34 34h27q34 0 34 -34v-83q0 -34 -34 -34h-27z" />
    <glyph glyph-name="ZahMedi" unicode="&#x638;" horiz-adv-x="1462" arabic-form="medial" 
d="M1176 511q0 213 -125 303q-76 55 -177 55q-216 0 -530 -345l-4 -6v-436h604q232 0 232 232v197zM1492 0h-48q-120 0 -192 72q-25 24 -40 57q-77 -129 -268 -129h-964v82h278v1301q0 28 27 28h28q27 0 27 -28v-746q307 313 534 313q174 0 279 -120q105 -119 105 -319v-284
q0 -59 38 -97q48 -48 129 -48h67v-82zM730 1185q-34 0 -34 34v83q0 34 34 34h28q34 0 34 -34v-83q0 -34 -34 -34h-28z" />
    <glyph glyph-name="AinFinl" unicode="&#x639;" horiz-adv-x="1321" arabic-form="final" 
d="M648 82h217l234 500q-14 116 -116 201t-226 85q-125 0 -227 -91q-95 -86 -115 -195zM1351 82v-82h-983q-90 0 -141 -68q-46 -60 -46 -145q0 -88 63 -151t150 -63h126q27 0 27 -27v-27q0 -27 -27 -27h-126q-122 0 -208 87q-86 86 -86 208q0 128 75 212q76 83 193 83h190
l-223 476q-4 9 -4 17q0 4 1 7q19 140 137 251q127 117 288 117q160 0 286 -110q127 -110 140 -261q0 -11 -5 -21l-222 -476h395z" />
    <glyph glyph-name="AinInit" unicode="&#x639;" horiz-adv-x="1234" arabic-form="initial" 
d="M1047 82q27 0 27 -27v-28q0 -27 -27 -27h-1067v82h390q-94 94 -94 246v224q0 164 117 281q116 117 281 117q212 0 351 -235l7 -12q5 -8 5 -16q0 -12 -15 -21l-23 -15q-8 -4 -15 -4q-14 0 -23 15l-7 11q-115 195 -280 195q-131 0 -223 -92q-93 -93 -93 -224v-224
q0 -97 54 -168q59 -78 154 -78h481z" />
    <glyph glyph-name="AinMedi" unicode="&#x639;" horiz-adv-x="1173" arabic-form="medial" 
d="M726 82l234 500q-14 116 -116 201t-226 85q-125 0 -227 -91q-95 -86 -115 -195l234 -500h216zM1203 82v-82h-1223v82h439l-223 476q-4 9 -4 17q0 3 1 6q19 141 138 251q126 118 287 118q160 0 287 -110q126 -110 138 -261v-3q0 -9 -4 -18l-223 -476h387z" />
    <glyph glyph-name="GhainFinl" unicode="&#x63a;" horiz-adv-x="1321" arabic-form="final" 
d="M648 82h216l235 500q-14 116 -116 201t-227 85q-124 0 -226 -91q-96 -86 -116 -195zM1351 82v-82h-984q-89 0 -141 -68q-45 -60 -45 -145q0 -88 63 -151t150 -63h125q28 0 28 -27v-27q0 -27 -28 -27h-125q-122 0 -208 87q-86 86 -86 208q0 128 75 212q76 83 192 83h190
l-222 476q-4 8 -4 18v6q20 141 138 251q127 117 287 117q161 0 287 -110t138 -261q1 -3 1 -6q0 -8 -4 -15l-224 -476h397zM754 1185q-34 0 -34 34v83q0 34 34 34h27q34 0 34 -34v-83q0 -34 -34 -34h-27z" />
    <glyph glyph-name="GhainInit" unicode="&#x63a;" horiz-adv-x="1225" arabic-form="initial" 
d="M1047 82q28 0 28 -27v-28q0 -27 -28 -27h-1067v82h391q-95 94 -95 246v224q0 164 117 281t282 117q211 0 350 -235l8 -12q4 -8 4 -15q0 -13 -15 -22l-23 -15q-8 -5 -16 -5q-13 0 -21 16l-8 11q-115 195 -279 195q-131 0 -224 -92q-93 -93 -93 -224v-224q0 -97 54 -168
q59 -78 154 -78h481zM635 1185q-35 0 -35 34v83q0 34 35 34h27q14 0 24 -10t10 -24v-83q0 -34 -34 -34h-27z" />
    <glyph glyph-name="GhainMedi" unicode="&#x63a;" horiz-adv-x="1173" arabic-form="medial" 
d="M726 82l234 500q-14 116 -115 201q-103 85 -227 85q-125 0 -227 -91q-95 -86 -115 -195l234 -500h216zM1203 82v-82h-1223v82h439l-223 476q-4 9 -4 17q0 3 1 6q19 141 138 251q127 118 287 118q161 0 287 -110t138 -261q1 -3 1 -5q0 -8 -5 -16l-223 -476h387zM616 1185
q-34 0 -34 34v83q0 34 34 34h27q14 0 24 -10q11 -10 11 -24v-83q0 -34 -35 -34h-27z" />
    <glyph glyph-name="FehFinl" unicode="&#x641;" horiz-adv-x="2276" arabic-form="final" 
d="M1597 1185q-34 0 -34 34v83q0 34 34 34h28q34 0 34 -34v-83q0 -34 -34 -34h-28zM1319 398q0 -131 93 -223q93 -93 224 -93h317v470q0 131 -93 224q-93 92 -224 92t-224 -92q-93 -93 -93 -224v-154zM2362 82v-82h-1854q-168 0 -287 119q-121 120 -121 291q0 117 62 219
q63 101 167 155l12 6q5 3 11 3q5 0 10 -2q11 -3 16 -13l12 -24q4 -6 4 -12q0 -5 -2 -9q-3 -11 -14 -16l-12 -6q-84 -43 -134 -125t-50 -176q0 -135 96 -233q93 -93 232 -95h884q-156 121 -156 316v154q0 165 117 281q117 117 281 117t281 -117q117 -116 117 -281v-470h328z
" />
    <glyph glyph-name="FehInit" unicode="&#x641;" horiz-adv-x="1230" arabic-form="initial" 
d="M999 552q0 131 -93 224q-93 92 -224 92t-223 -92q-93 -93 -93 -224v-154q0 -131 93 -223q93 -93 223 -93h317v470zM682 950q165 0 282 -117q116 -117 116 -281v-511q0 -17 -11 -29q-12 -12 -29 -12h-1060v82h461q-157 119 -157 316v154q0 164 117 281t281 117zM644 1185
q-35 0 -35 34v83q0 14 11 24q10 10 24 10h27q34 0 34 -34v-83q0 -34 -34 -34h-27z" />
    <glyph glyph-name="FehMedi" unicode="&#x641;" horiz-adv-x="1334" arabic-form="medial" 
d="M366 398q0 -131 93 -223q93 -93 223 -93h317v470q0 131 -93 224q-93 92 -224 92q-130 0 -223 -92q-93 -93 -93 -224v-154zM1364 82v-82h-1384v82h461q-157 120 -157 316v154q0 165 117 281q117 117 281 117q165 0 282 -117q117 -116 117 -281v-470h283zM644 1185
q-34 0 -34 34v83q0 34 34 34h28q33 0 33 -34v-83q0 -34 -33 -34h-28z" />
    <glyph glyph-name="QafFinl" unicode="&#x642;" horiz-adv-x="1582" arabic-form="final" 
d="M1219 544q0 136 -92 230q-91 94 -224 94q-131 0 -224 -93q-92 -93 -92 -224v-153q0 -131 92 -224q93 -92 224 -92h316v462zM1612 82v-82h-311v-47q0 -150 -110 -259q-109 -110 -259 -110h-422q-170 0 -290 120q-120 121 -120 290v286q0 27 27 27h28q26 0 26 -27v-286
q0 -135 97 -231q96 -96 232 -96h422q117 0 202 85t85 201v47h-316q-165 0 -282 117q-117 116 -117 281v153q0 165 117 282q117 116 282 116q167 0 282 -117q116 -118 116 -288v-462h311zM746 1185q-35 0 -35 34v83q0 34 35 34h27q34 0 34 -34v-83q0 -34 -34 -34h-27z
M1019 1185q-35 0 -35 34v83q0 14 11 24q10 10 24 10h27q34 0 34 -34v-83q0 -34 -34 -34h-27z" />
    <glyph glyph-name="QafInit" unicode="&#x642;" horiz-adv-x="1230" arabic-form="initial" 
d="M999 552q0 131 -93 224q-93 92 -224 92t-223 -92q-93 -93 -93 -224v-154q0 -131 93 -223q92 -93 223 -93h317v470zM682 950q165 0 282 -117q116 -117 116 -281v-511q0 -17 -11 -29q-12 -12 -29 -12h-1060v82h461q-157 119 -157 316v154q0 164 117 281t281 117zM525 1185
q-34 0 -34 34v83q0 34 34 34h27q35 0 35 -34v-83q0 -34 -35 -34h-27zM799 1185q-35 0 -35 34v83q0 14 10 24q11 10 25 10h26q35 0 35 -34v-83q0 -34 -35 -34h-26z" />
    <glyph glyph-name="QafMedi" unicode="&#x642;" horiz-adv-x="1334" arabic-form="medial" 
d="M525 1185q-33 0 -33 34v83q0 34 33 34h28q34 0 34 -34v-83q0 -34 -34 -34h-28zM798 1185q-34 0 -34 34v83q0 34 34 34h28q34 0 34 -34v-83q0 -34 -34 -34h-28zM366 398q0 -131 93 -223q93 -93 223 -93h317v470q0 131 -93 224q-93 92 -224 92q-130 0 -223 -92
q-93 -93 -93 -224v-154zM1364 82v-82h-1384v82h461q-157 120 -157 316v154q0 165 117 281q117 117 281 117q165 0 282 -117q117 -116 117 -281v-470h283z" />
    <glyph glyph-name="KafFinl" unicode="&#x643;" horiz-adv-x="1629" arabic-form="final" 
d="M679 740q-28 0 -28 27v6q0 27 28 27h41v114q0 54 38 93q39 38 93 38q86 0 120 -80l1 -2q3 -8 3 -14q0 -15 -18 -22l-5 -2q-8 -4 -14 -4q-14 0 -21 18l-1 2q-20 44 -65 44q-30 0 -51 -21q-21 -20 -21 -50v-114h178q27 0 27 -27v-6q0 -27 -27 -27h-278zM1659 0h-50
q-134 0 -201 66q-9 8 -20 24q-12 -16 -24 -30q-62 -60 -166 -60h-688q-170 0 -289 120q-121 119 -121 289q0 117 63 219q62 102 166 156l13 6q5 3 11 3q5 0 10 -2q9 -2 16 -13l12 -24q3 -6 3 -12q0 -5 -2 -9q-3 -11 -13 -16l-12 -6q-84 -43 -134 -125t-50 -177
q0 -136 96 -231q94 -96 232 -96h687q71 0 108 36q36 36 36 109v1156q0 27 28 27h27q28 0 28 -27v-1184q0 -49 27 -75q43 -42 145 -42h62v-82z" />
    <glyph glyph-name="KafInit" unicode="&#x643;" horiz-adv-x="1296" arabic-form="initial" 
d="M715 849q183 0 302 -121q119 -122 119 -307v-194q0 -105 -62 -167q-61 -60 -165 -60h-929v82h928q71 0 108 36t37 109v194q0 153 -94 250q-94 96 -244 96h-426q-17 0 -29 12q-11 12 -11 29q0 190 76 321q118 204 396 204h141q27 0 27 -28v-28q0 -27 -27 -27h-141
q-372 0 -389 -401h383z" />
    <glyph glyph-name="KafMedi" unicode="&#x643;" horiz-adv-x="1339" arabic-form="medial" 
d="M1369 0h-49q-135 0 -201 66q-9 9 -20 24q-10 -16 -24 -30q-62 -60 -166 -60h-929v82h928q72 0 109 36q36 36 36 109v194q0 153 -94 250q-94 96 -243 96h-426q-17 0 -29 12t-12 29q0 190 76 321q118 204 396 204h142q27 0 27 -28v-28q0 -27 -27 -27h-142q-371 0 -389 -401
h384q182 0 301 -121t119 -307v-222q0 -48 27 -75q43 -42 145 -42h61v-82z" />
    <glyph glyph-name="LamFinl" unicode="&#x644;" horiz-adv-x="1156" arabic-form="final" 
d="M1196 0h-281q-18 -153 -134 -257t-271 -104q-170 0 -290 120t-120 290v448q0 28 27 28h27q27 0 27 -28v-448q0 -136 96 -232t233 -96q134 0 230 96t96 232v1334q0 28 28 28h27q28 0 28 -28v-1301h277v-82z" />
    <glyph glyph-name="LamInit" unicode="&#x644;" horiz-adv-x="612" arabic-form="initial" 
d="M-20 0v82h237q69 1 105 36q38 37 38 109v1156q0 27 27 27h28q27 0 27 -27v-1156q0 -105 -61 -167q-61 -60 -166 -60h-235z" />
    <glyph glyph-name="LamMedi" unicode="&#x644;" horiz-adv-x="646" arabic-form="medial" 
d="M676 0h-49q-135 0 -201 66q-9 9 -20 24q-14 -19 -24 -30q-62 -60 -166 -60h-236v82h238q69 0 106 36q36 36 36 109v1156q0 27 28 27h27q28 0 28 -27v-1184q0 -47 27 -75q43 -42 145 -42h61v-82z" />
    <glyph glyph-name="MeemFinl" unicode="&#x645;" horiz-adv-x="1461" arabic-form="final" 
d="M859 82q131 0 223 93q93 93 93 223v154q0 131 -93 224q-92 93 -223 93q-130 0 -223 -93t-93 -224v-470h316zM1501 0h-113q-119 0 -191 72q-26 25 -42 61q-119 -133 -296 -133h-504q-72 0 -123 -50q-51 -51 -51 -123v-240q0 -27 -26 -27h-28q-27 0 -27 27v240
q0 106 75 181q74 74 180 74h106v470q0 165 117 281q116 117 281 117t282 -117q116 -116 116 -281v-154q0 -104 -52 -196q6 -41 36 -72q48 -48 131 -48h129v-82z" />
    <glyph glyph-name="MeemInit" unicode="&#x645;" horiz-adv-x="1247" arabic-form="initial" 
d="M373 82h316q131 0 224 93q92 92 92 223v154q0 131 -92 224q-93 92 -224 92t-223 -92q-93 -93 -93 -224v-470zM-20 0v82h311v470q0 164 117 281q116 117 281 117t281 -117q117 -117 117 -281v-154q0 -164 -117 -281q-116 -117 -281 -117h-709z" />
    <glyph glyph-name="MeemMedi" unicode="&#x645;" horiz-adv-x="1291" arabic-form="medial" 
d="M689 82q131 0 224 93q92 92 92 223v154q0 131 -92 224q-93 92 -224 92t-223 -92q-93 -93 -93 -224v-470h316zM1321 0h-103q-119 0 -191 72q-28 28 -41 61q-121 -133 -297 -133h-709v82h311v470q0 164 117 281q116 117 281 117t282 -117t117 -281v-154q0 -104 -53 -197
q8 -42 36 -71q48 -48 131 -48h119v-82z" />
    <glyph glyph-name="NoonFinl" unicode="&#x646;" horiz-adv-x="1152" arabic-form="final" 
d="M1192 0h-277q-18 -153 -133 -257q-117 -104 -273 -104q-169 0 -289 120t-120 290v448q0 28 27 28h27q28 0 28 -28v-448q0 -136 96 -232t231 -96q136 0 232 96t96 232v833q0 27 27 27h27q28 0 28 -27v-800h273v-82zM469 994q-35 0 -35 34v83q0 34 35 34h26q34 0 34 -34
v-83q0 -34 -34 -34h-26z" />
    <glyph glyph-name="NoonInit" unicode="&#x646;" horiz-adv-x="601" arabic-form="initial" 
d="M407 1336q34 0 34 -34v-83q0 -34 -34 -34h-27q-34 0 -34 34v83q0 34 34 34h27zM407 910q28 0 28 -27v-656q0 -106 -62 -166q-61 -61 -165 -61h-228v82h230q70 1 106 36q37 39 37 108v657q0 27 27 27h27z" />
    <glyph glyph-name="NoonMedi" unicode="&#x646;" horiz-adv-x="638" arabic-form="medial" 
d="M668 0h-48q-137 0 -202 66q-12 11 -21 24q-10 -16 -24 -30q-61 -60 -165 -60h-228v82h230q69 0 106 36q37 37 37 109v655q0 27 27 27h27q28 0 28 -27v-683q0 -48 27 -75q43 -42 145 -42h61v-82zM380 1185q-34 0 -34 34v83q0 34 34 34h27q34 0 34 -34v-83q0 -34 -34 -34
h-27z" />
    <glyph glyph-name="HehFinl" unicode="&#x647;" horiz-adv-x="1141" arabic-form="final" 
d="M275 776q-93 -93 -93 -224v-154q0 -131 93 -223q92 -93 223 -93h316v470q0 131 -93 224q-92 92 -223 92t-223 -92zM1191 0h-693q-165 0 -281 117q-117 117 -117 281v154q0 165 117 281q116 117 281 117t281 -117q117 -116 117 -281v-470h295v-82z" />
    <glyph glyph-name="HehInit" unicode="&#x647;" horiz-adv-x="1517" arabic-form="initial" 
d="M1275 620q0 137 -98 235q-97 98 -235 98q-95 0 -175 -50t-122 -134q109 -17 181 -102q74 -85 74 -197v-388h42q138 0 235 98q98 97 98 235v205zM818 82v388q0 112 -65 156q-65 65 -157 65q-91 0 -156 -65q-65 -44 -65 -156v-179q0 -86 62 -148q61 -61 148 -61h233z
M942 1035q171 0 293 -122t122 -293v-205q0 -171 -122 -293t-293 -122h-962v82h402q-89 86 -89 209v179q0 115 76 200q75 86 186 100q47 120 153 192q106 73 234 73z" />
    <glyph glyph-name="HehMedi" unicode="&#x647;" horiz-adv-x="1370" arabic-form="medial" 
d="M411 82h316q131 0 224 93t93 223v154q0 131 -93 224q-93 92 -224 92t-223 -92q-93 -93 -93 -224v-470zM1400 82v-82h-274v-44q0 -164 -117 -281t-282 -117t-281 117q-117 117 -117 281v44h-349v82h349v470q0 165 117 281q116 117 281 117t282 -117q117 -116 117 -281
v-154q0 -164 -117 -281t-282 -117h-316v-44q0 -131 93 -223q92 -93 223 -93t224 93q93 92 93 223v85q0 18 12 30q12 11 29 11h315z" />
    <glyph glyph-name="WawFinl" unicode="&#x648;" horiz-adv-x="1179" arabic-form="final" 
d="M305 775q-93 -92 -93 -223v-154q0 -131 93 -224q92 -92 223 -92h316v470q0 131 -93 223q-92 93 -223 93t-223 -93zM379 -427q-27 0 -27 27v28q0 27 27 27h178q117 0 202 85q85 86 85 202v58h-316q-165 0 -281 116q-117 117 -117 282v154q0 164 117 281q116 117 281 117
t281 -117q117 -117 117 -281v-470h283v-82h-283v-58q0 -150 -109 -259q-110 -110 -260 -110h-178z" />
    <glyph glyph-name="AlefMaqsuraFinl" unicode="&#x649;" horiz-adv-x="2004" arabic-form="final" 
d="M2034 0h-279q-17 0 -29 12t-12 29v603q0 92 -66 158t-159 66q-92 0 -158 -66t-66 -158v-803q0 -17 -12 -29t-29 -12h-715q-169 0 -289 120q-120 119 -120 290q0 117 62 219t167 155l12 6q6 3 13 3q4 0 8 -1q10 -3 16 -14l12 -24q3 -6 3 -11t-2 -10q-2 -11 -12 -16l-13 -6
q-84 -43 -135 -125q-50 -82 -50 -176q0 -135 97 -232q95 -95 232 -96h673v762q0 127 89 217q90 89 217 89t217 -89q90 -90 90 -217v-562h238v-82z" />
    <glyph glyph-name="YehFinl" unicode="&#x64a;" horiz-adv-x="2004" arabic-form="final" 
d="M2034 0h-279q-17 0 -29 12t-12 29v603q0 93 -66 159t-159 66q-92 0 -158 -66t-66 -159v-803q0 -17 -12 -29t-29 -12h-715q-169 0 -289 120q-120 119 -120 290q0 117 62 219t167 155l12 6q6 3 13 3q4 0 8 -1q10 -3 16 -13l12 -25q3 -6 3 -11t-2 -9q-2 -11 -12 -17l-13 -6
q-84 -42 -135 -124q-50 -82 -50 -177q0 -135 97 -232q95 -95 232 -96h673v762q0 127 89 217q90 90 217 90t217 -90t90 -217v-562h238v-82zM643 -400q34 0 34 -34v-83q0 -34 -34 -34h-27q-35 0 -35 34v83q0 34 35 34h27zM916 -400q34 0 34 -34v-83q0 -34 -34 -34h-27
q-35 0 -35 34v83q0 34 35 34h27z" />
    <glyph glyph-name="YehInit" unicode="&#x64a;" horiz-adv-x="595" arabic-form="initial" 
d="M96 -200q34 0 34 -34v-83q0 -34 -34 -34h-27q-34 0 -34 34v83q0 34 34 34h27zM369 -200q34 0 34 -34v-83q0 -34 -34 -34h-27q-34 0 -34 34v83q0 34 34 34h27zM435 228q0 -107 -61 -167q-61 -61 -165 -61h-229v82h231q69 1 105 36q37 38 37 109v656q0 27 27 27h28
q27 0 27 -27v-655z" />
    <glyph glyph-name="YehMedi" unicode="&#x64a;" horiz-adv-x="638" arabic-form="medial" 
d="M668 0h-48q-137 0 -202 65q-12 12 -21 25q-10 -17 -24 -30q-61 -60 -165 -60h-228v82h230q69 0 106 36q37 37 37 108v656q0 27 27 27h27q28 0 28 -27v-683q0 -48 27 -76q42 -40 145 -41h61v-82zM169 -201q34 0 34 -34v-83q0 -34 -34 -34h-28q-33 0 -33 34v83q0 34 33 34
h28zM442 -201q34 0 34 -34v-83q0 -34 -34 -34h-27q-34 0 -34 34v83q0 34 34 34h27z" />
    <glyph glyph-name=".notdef" horiz-adv-x="1024" 
d="M100 0v1434h824v-1434h-824zM150 50h724v1334h-724v-1334zM325 1148q31 28 58 43q53 30 112 30q92 0 148 -47.5t56 -127.5q0 -49 -23 -98.5t-87 -129.5q-63 -80 -99 -132t-36 -99q0 -38 24 -133h-32q-35 97 -35 148q0 76 81.5 218t81.5 217q0 57 -33 90t-91 33
q-38 0 -69 -17q-26 -15 -56 -40v45zM389 334l57 58q11 10 20 10q10 0 22 -11l56 -60q9 -11 9 -20q0 -11 -10 -22l-56 -62q-14 -14 -21 -14q-11 0 -20 10l-61 71q-7 9 -7 18q0 10 11 22z" />
    <glyph glyph-name=".null" 
 />
    <glyph glyph-name="nonmarkingreturn" horiz-adv-x="508" 
 />
    <glyph glyph-name="space" unicode=" " horiz-adv-x="409" 
 />
    <glyph glyph-name="space" unicode="&#xa0;" horiz-adv-x="409" 
 />
    <glyph glyph-name="exclam" unicode="!" horiz-adv-x="346" 
d="M134 361q-26 0 -26 28v995q0 27 26 27h28q27 0 27 -27v-995q0 -28 -27 -28h-28zM165 169q31 0 31 -32v-106q0 -31 -31 -31h-34q-31 0 -31 31v106q0 32 31 32h34z" />
    <glyph glyph-name="quotedbl" unicode="&#x22;" horiz-adv-x="678" 
d="M516 1383q2 -5 2 -11q0 -5 -2 -10l-93 -224q-7 -18 -22 -18q-6 0 -14 3l-25 11q-10 4 -15 15q-2 5 -2 10t3 10l92 224q7 18 22 18q7 0 14 -3l26 -11q10 -3 14 -14zM255 1397q11 -4 15 -14q3 -5 3 -11q0 -5 -3 -10l-92 -224q-8 -18 -23 -18q-7 0 -14 3l-25 11
q-11 4 -15 14q-1 6 -1 11t1 10l94 224q7 18 22 18q7 0 14 -3z" />
    <glyph glyph-name="numbersign" unicode="#" horiz-adv-x="1403" 
d="M862 902h-327l-59 -327h327zM1215 984q28 0 28 -27v-28q0 -27 -28 -27h-270l-59 -327h274q28 0 28 -28v-27q0 -27 -28 -27h-289l-85 -470q-4 -23 -27 -23h-26q-12 0 -21 10q-6 7 -6 17v5l83 461h-327l-85 -470q-4 -23 -27 -23h-27q-11 0 -21 10q-6 8 -6 19v3l83 461h-252
q-27 0 -27 27v27q0 28 27 28h267l58 327h-270q-27 0 -27 27v28q0 27 27 27h285l71 404q4 23 28 23h29q12 0 20 -10q7 -9 7 -19v-4l-71 -394h325l73 404q3 23 26 23h30q12 0 20 -10q6 -8 6 -18v-5l-72 -394h256z" />
    <glyph glyph-name="dollar" unicode="$" horiz-adv-x="862" 
d="M360 741v442q-76 -15 -127 -75q-50 -61 -50 -140v-69q0 -65 46 -112q46 -46 111 -46h20zM442 659v-442q77 15 128 75q51 61 51 140v69q0 65 -47 112q-46 46 -112 46h-20zM647 927q-26 0 -26 27v14q0 79 -51 140q-51 60 -128 75v-442h20q99 0 170 -70q70 -71 70 -170v-69
q0 -113 -75 -198q-74 -85 -185 -100v-107q0 -27 -27 -27h-28q-27 0 -27 27v107q-111 15 -185 100q-75 85 -75 198v14q0 27 27 27h28q28 0 28 -27v-14q0 -79 50 -140q51 -60 127 -75v442h-20q-99 0 -170 70q-70 71 -70 170v69q0 113 75 198q74 84 185 100v118q0 27 27 27h28
q27 0 27 -27v-118q111 -16 185 -100q75 -85 75 -198v-14q0 -27 -27 -27h-28z" />
    <glyph glyph-name="percent" unicode="%" horiz-adv-x="1200" 
d="M183 981q0 -49 34 -84q35 -35 84 -35q50 0 85 35q36 35 36 84v218q0 50 -36 85q-35 35 -85 35q-49 0 -84 -35q-34 -35 -34 -85v-218zM503 981q0 -83 -59 -142t-143 -59q-83 0 -142 59t-59 142v218q0 83 59 142t142 59q84 0 143 -59q59 -58 59 -142v-218zM974 1378
q1 -4 1 -8q0 -7 -3 -13l-704 -1341q-9 -16 -22 -16q-8 0 -16 5l-23 12q-11 5 -14 16q-1 4 -1 8q0 6 2 13l705 1341q8 16 21 16q7 0 16 -5l24 -13q9 -3 14 -15zM957 425q0 50 -35 85t-84 35t-84 -35q-36 -35 -36 -85v-218q0 -49 36 -84q35 -35 84 -35t84 35t35 84v218z
M838 627q83 0 143 -59q59 -60 59 -143v-218q0 -83 -59 -142q-60 -59 -143 -59q-84 0 -143 59t-59 142v218q0 84 59 143t143 59z" />
    <glyph glyph-name="ampersand" unicode="&#x26;" horiz-adv-x="1353" 
d="M762 217l-410 486l-74 -76q-93 -92 -93 -223t93 -224q92 -92 223 -92t223 92zM1193 544q0 -12 -8 -19l-313 -313l127 -149q8 -9 8 -18q0 -11 -12 -21l-21 -17q-8 -7 -18 -7h-2q-12 1 -17 10l-123 144l-31 -31q-117 -117 -281 -117q-166 0 -282 117q-117 116 -117 281
t117 282l80 79l-133 161q-67 81 -67 184q0 14 1 28q10 121 101 199l4 2l2 2q82 68 186 68q13 0 27 -1q99 -10 172 -77l3 2l25 -31q3 -2 8 -11l16 -19l-2 -1q47 -74 47 -157q0 -17 -2 -35l-2 -13q-4 -24 -25 -24h-5l-28 3q-13 2 -17 11q-7 6 -7 17v3l2 13q2 14 2 27
q0 67 -42 123l-9 12q-57 67 -143 75q-10 1 -20 1q-75 0 -134 -49q-6 -6 -7 -6q-64 -55 -71 -141q-1 -10 -1 -19q0 -74 49 -133l177 -214l4 -4l409 -486l307 307q10 11 19 11q10 0 19 -11l20 -18q8 -8 8 -20z" />
    <glyph glyph-name="quotesingle" unicode="'" horiz-adv-x="434" 
d="M178 1138q-7 -18 -22 -18q-6 0 -14 3l-25 11q-10 3 -14 15q-3 5 -3 10t3 10l92 224q8 18 23 18q6 0 13 -3l25 -11q11 -4 15 -14q3 -5 3 -11q0 -5 -3 -10z" />
    <glyph glyph-name="parenleft" unicode="(" horiz-adv-x="706" 
d="M523 -99q-7 -9 -18 -11h-3q-11 0 -18 6l-11 8q-373 279 -373 814t373 815l11 8q8 5 16 5h5q9 -1 18 -11l15 -21q7 -10 7 -18q0 -11 -12 -21l-10 -9q-342 -255 -342 -748t342 -749l10 -8q13 -10 13 -20q0 -9 -8 -18z" />
    <glyph glyph-name="parenright" unicode=")" horiz-adv-x="736" 
d="M167 -77q-7 9 -7 18q0 10 12 20l11 8q342 256 342 749t-342 748l-11 9q-12 10 -12 21q0 8 7 18l16 21q8 10 18 11h5q8 0 16 -5l10 -8q374 -280 374 -815t-374 -814l-10 -8q-7 -6 -18 -6h-3q-11 2 -18 11z" />
    <glyph glyph-name="asterisk" unicode="*" horiz-adv-x="821" 
d="M659 1213q2 -5 2 -10t-2 -10q-4 -10 -14 -16l-219 -95l166 -232q6 -10 6 -18v-2q-3 -12 -12 -18l-4 -4q-9 -6 -17 -6q-12 0 -21 13l-164 228l-162 -228q-10 -13 -22 -13q-8 0 -17 6l-4 4q-9 6 -12 18v3q0 9 5 17l166 232l-218 95q-11 6 -14 16q-2 4 -2 8q0 6 3 12l1 5
q8 18 22 18q6 0 14 -4l210 -91v243q0 27 28 27h5q28 0 28 -27v-243l209 91q8 3 14 3q14 0 22 -17z" />
    <glyph glyph-name="plus" unicode="+" horiz-adv-x="993" 
d="M806 697q27 0 27 -28v-27q0 -27 -27 -27h-299v-299q0 -27 -27 -27h-28q-26 0 -26 27v299h-299q-27 0 -27 27v27q0 28 27 28h299v298q0 27 26 27h28q27 0 27 -27v-298h299z" />
    <glyph glyph-name="comma" unicode="," horiz-adv-x="433" 
d="M178 -122q-8 -18 -23 -18q-6 0 -13 3l-25 11q-11 4 -15 14q-2 5 -2 10q0 6 2 11l93 224q7 18 22 18q7 0 14 -3l25 -11q12 -5 15 -15q2 -5 2 -10t-2 -10z" />
    <glyph glyph-name="hyphen" unicode="-" horiz-adv-x="993" 
d="M806 697q27 0 27 -28v-27q0 -27 -27 -27h-679q-27 0 -27 27v27q0 28 27 28h679z" />
    <glyph glyph-name="period" unicode="." horiz-adv-x="356" 
d="M164 141q32 0 32 -31v-79q0 -31 -32 -31h-33q-31 0 -31 31v79q0 31 31 31h33z" />
    <glyph glyph-name="slash" unicode="/" horiz-adv-x="851" 
d="M179 18q-7 -18 -22 -18q-7 0 -14 3l-25 9q-10 4 -15 15q-3 5 -3 11q0 4 2 9l510 1354q7 19 23 19q6 0 13 -3l25 -9q10 -5 15 -15q3 -6 3 -11t-2 -10z" />
    <glyph glyph-name="zero" unicode="0" horiz-adv-x="1037" 
d="M272 1238q-90 -90 -90 -217v-632q0 -127 90 -217t216 -90q127 0 217 90t90 217v632q0 127 -90 217t-217 90q-126 0 -216 -90zM214 114q-114 114 -114 275v632q0 161 114 275t274 114q161 0 275 -114t114 -275v-632q0 -161 -114 -275t-275 -114q-160 0 -274 114z" />
    <glyph glyph-name="one" unicode="1" horiz-adv-x="653" 
d="M473 27q0 -27 -27 -27h-28q-26 0 -26 27v1276q0 25 -26 25h-239q-27 0 -27 27v27q0 28 27 28h239q44 0 76 -32q31 -31 31 -75v-1276z" />
    <glyph glyph-name="two" unicode="2" horiz-adv-x="1038" 
d="M837 27q0 -27 -27 -27h-603q-44 0 -76 31q-31 32 -31 76v333q0 82 59 141q58 59 141 59h270q93 0 159 65q65 66 65 159v158q0 126 -89 216q-90 90 -217 90q-126 0 -216 -90q-91 -90 -91 -216v-14q0 -28 -26 -28h-28q-27 0 -27 28v14q0 160 114 274q113 114 274 114
t275 -114q115 -114 115 -274v-158q0 -126 -91 -216q-90 -90 -217 -90h-270q-49 0 -84 -35t-35 -83v-333q0 -25 26 -25h603q27 0 27 -27v-28z" />
    <glyph glyph-name="three" unicode="3" horiz-adv-x="1037" 
d="M214 114q-114 114 -114 274v14q0 27 28 27h27q28 0 28 -27v-14q0 -127 89 -216q90 -90 217 -90t217 90t90 216v78q0 93 -66 159t-160 66h-198q-16 0 -28 12t-12 29q0 16 12 28t28 12h198q93 0 160 66q66 66 66 159v25q0 126 -90 216t-217 90t-217 -90q-89 -90 -89 -216
v-14q0 -27 -28 -27h-27q-28 0 -28 27v14q0 160 114 274t275 114q160 0 274 -114t114 -274v-25q0 -178 -153 -265q153 -89 153 -266v-78q0 -160 -114 -274t-274 -114q-161 0 -275 114z" />
    <glyph glyph-name="four" unicode="4" horiz-adv-x="1225" 
d="M222 454h574v789zM878 27q0 -27 -28 -27h-27q-27 0 -27 27v345h-655q-25 0 -36 23q-5 10 -5 19q0 12 8 24l696 955q12 18 30 18q7 0 15 -3q29 -9 29 -39v-915h159q28 0 28 -27v-28q0 -27 -28 -27h-159v-345z" />
    <glyph glyph-name="five" unicode="5" horiz-adv-x="1037" 
d="M214 114q-114 114 -114 274v14q0 27 28 27h27q28 0 28 -27v-14q0 -126 89 -216q90 -90 216 -90q127 0 217 90t90 216v184q0 93 -66 159q-65 66 -159 66h-429q-17 0 -29 12t-12 29v465q0 44 31 75q32 32 77 32h562q27 0 27 -28v-27q0 -27 -27 -27h-562q-25 0 -25 -25v-424
h387q127 0 217 -90t90 -217v-184q0 -160 -114 -274t-275 -114q-160 0 -274 114z" />
    <glyph glyph-name="six" unicode="6" horiz-adv-x="1037" 
d="M488 797q-126 0 -216 -90t-90 -217v-102q0 -126 90 -216t216 -90q127 0 217 90q89 90 89 216v184q0 93 -65 159q-66 66 -159 66h-82zM822 981q-28 0 -28 27v14q0 127 -89 216q-90 90 -217 90t-216 -90q-90 -89 -90 -216v-294q117 151 306 151h82q127 0 217 -90t90 -217
v-184q0 -160 -114 -274t-275 -114q-149 0 -260 101q-110 100 -125 246h-3v675q0 160 114 274t274 114q161 0 275 -114t114 -274v-14q0 -27 -28 -27h-27z" />
    <glyph glyph-name="seven" unicode="7" horiz-adv-x="1037" 
d="M335 17q-7 -17 -25 -17h-30q-14 0 -22 12q-6 7 -6 15q0 5 3 11l520 1290h-648q-27 0 -27 27v27q0 28 27 28h709q21 0 33 -18q8 -10 8 -21q0 -8 -4 -17z" />
    <glyph glyph-name="eight" unicode="8" horiz-adv-x="1036" 
d="M570 734q93 0 159 66t66 158v64q0 126 -90 216t-217 90q-126 0 -216 -90q-90 -89 -90 -216v-64q0 -92 66 -158q65 -66 158 -66h164zM795 427q0 93 -66 159t-159 66h-164q-93 0 -158 -66q-66 -66 -66 -159v-39q0 -126 90 -216t216 -90q127 0 217 90t90 216v39zM876 958
q0 -176 -153 -265q153 -90 153 -266v-39q0 -160 -114 -274q-113 -114 -274 -114t-274 114q-114 114 -114 274v39q0 177 154 266q-154 89 -154 265v64q0 149 100 260t247 126v2h82v-2q147 -15 247 -126q100 -110 100 -260v-64z" />
    <glyph glyph-name="nine" unicode="9" horiz-adv-x="1038" 
d="M795 1021q0 127 -90 217q-89 90 -216 90q-126 0 -216 -90t-90 -217v-183q0 -93 65 -159q66 -66 159 -66h82q127 0 216 90q90 90 90 217v101zM878 1062v-673q0 -161 -115 -275q-114 -114 -274 -114q-161 0 -275 114t-114 275v13q0 28 27 28h28q28 0 28 -28v-13
q0 -127 90 -217t216 -90q127 0 216 90q90 90 90 217v293q-117 -151 -306 -151h-82q-127 0 -217 90t-90 217v183q0 161 114 275t275 114q150 0 261 -101q110 -100 125 -247h3z" />
    <glyph glyph-name="colon" unicode=":" horiz-adv-x="356" 
d="M164 151q32 0 32 -31v-89q0 -31 -32 -31h-33q-31 0 -31 31v89q0 31 31 31h33zM164 921q32 0 32 -31v-99q0 -31 -32 -31h-33q-31 0 -31 31v99q0 31 31 31h33z" />
    <glyph glyph-name="semicolon" unicode=";" horiz-adv-x="436" 
d="M256 157q11 -5 14 -15q2 -5 2 -11q0 -5 -2 -10l-93 -224q-7 -18 -21 -18q-7 0 -14 3l-25 10q-10 5 -15 16q-2 5 -2 10q0 6 2 11l93 224q8 17 23 17q6 0 13 -3zM244 911q32 0 32 -32v-98q0 -32 -32 -32h-33q-31 0 -31 32v98q0 32 31 32h33z" />
    <glyph glyph-name="less" unicode="&#x3c;" horiz-adv-x="899" 
d="M721 368q-9 -14 -22 -14q-8 0 -17 5l-564 351q-18 12 -18 35t18 35l564 350q10 6 18 6q13 0 21 -14l14 -23q4 -7 4 -14q0 -3 -1 -6q-2 -12 -11 -18l-509 -316l509 -316q9 -8 11 -17q1 -3 1 -6q0 -8 -4 -15z" />
    <glyph glyph-name="equal" unicode="=" horiz-adv-x="967" 
d="M779 655q28 0 28 -27v-28q0 -27 -28 -27h-652q-27 0 -27 27v28q0 27 27 27h652zM779 928q28 0 28 -27v-28q0 -27 -28 -27h-652q-27 0 -27 27v28q0 27 27 27h652z" />
    <glyph glyph-name="greater" unicode="&#x3e;" horiz-adv-x="908" 
d="M114 391q-4 8 -4 16v5q2 9 12 17l508 316l-508 316q-10 6 -12 18v5q0 8 4 15l14 23q8 14 21 14q8 0 17 -6l564 -350q18 -12 18 -35t-18 -35l-564 -351q-9 -5 -16 -5q-13 0 -22 14z" />
    <glyph glyph-name="question" unicode="?" horiz-adv-x="1057" 
d="M498 1417q165 0 282 -117t117 -281v-43q0 -129 -93 -221q-92 -93 -221 -93h-114q-58 0 -81 -50q-15 -31 -15 -73v-245q0 -27 -27 -27h-27q-28 0 -28 27v245q0 92 49 149q49 56 129 56h114q96 0 164 68t68 164v43q0 130 -93 223t-224 93t-223 -93q-93 -93 -93 -223v-14
q0 -27 -27 -27h-28q-27 0 -27 27v14q0 164 117 281t281 117zM347 141q32 0 32 -31v-79q0 -31 -32 -31h-33q-31 0 -31 31v79q0 31 31 31h33z" />
    <glyph glyph-name="at" unicode="@" horiz-adv-x="1347" 
d="M455 592q0 -78 55 -134q56 -55 134 -55h190v390q0 78 -56 133q-56 56 -134 56t-134 -56q-55 -55 -55 -133v-201zM644 1410q225 0 384 -159q159 -160 159 -385v-361q-8 -78 -66 -131q-59 -53 -138 -53h-339q-112 0 -191 79q-80 80 -80 192v201q0 112 80 191q79 80 191 80
t192 -80q79 -79 79 -191v-390h68q51 0 87 36t36 87v340q0 191 -136 326q-135 136 -326 136t-326 -136q-135 -135 -135 -326v-322q0 -192 135 -327t326 -135h313q28 0 28 -27v-28q0 -27 -28 -27h-313q-225 0 -384 159q-160 160 -160 385v322q0 225 160 385q159 159 384 159z
" />
    <glyph glyph-name="A" unicode="A" horiz-adv-x="1038" 
d="M795 666v356q0 127 -90 217t-217 90q-126 0 -216 -90q-89 -90 -89 -217v-356h612zM488 1410q161 0 275 -114q115 -114 115 -274v-995q0 -27 -28 -27h-27q-28 0 -28 27v557h-612v-557q0 -27 -28 -27h-27q-28 0 -28 27v995q0 160 114 274t274 114z" />
    <glyph glyph-name="B" unicode="B" horiz-adv-x="1036" 
d="M795 455q0 92 -66 158t-159 66h-388v-572q0 -25 25 -25h281q127 0 217 90q90 89 90 216v67zM182 761h334q92 0 158 66t66 159v36q0 127 -89 216q-90 90 -217 90h-227q-25 0 -25 -25v-542zM693 736q82 -37 132 -112q51 -77 51 -169v-67q0 -149 -100 -260
q-100 -110 -247 -125v-3h-322q-44 0 -75 31q-32 32 -32 76v1196q0 44 32 76q31 31 75 31h245q155 -8 262 -120q108 -113 108 -268v-36q0 -159 -129 -250z" />
    <glyph glyph-name="C" unicode="C" horiz-adv-x="1037" 
d="M214 114q-114 114 -114 274v634q0 161 114 275q114 113 274 113q161 0 275 -113q114 -114 114 -275v-14q0 -27 -27 -27h-28q-27 0 -27 27v14q0 126 -90 216t-217 90q-126 0 -216 -90t-90 -216v-634q0 -126 90 -216t216 -90q127 0 217 90t90 216v14q0 27 27 27h28
q27 0 27 -27v-14q0 -160 -114 -274t-275 -114q-160 0 -274 114z" />
    <glyph glyph-name="D" unicode="D" horiz-adv-x="1036" 
d="M795 1022q0 127 -90 216q-90 90 -217 90h-281q-25 0 -25 -25v-1196q0 -25 25 -25h281q127 0 217 90q90 89 90 216v634zM506 1410q155 -7 262 -120q108 -112 108 -268v-634q0 -149 -100 -260q-100 -110 -247 -125v-3h-322q-44 0 -75 31q-32 32 -32 76v1196q0 44 32 76
q31 31 75 31h299z" />
    <glyph glyph-name="E" unicode="E" horiz-adv-x="1048" 
d="M862 82q26 0 26 -27v-28q0 -27 -26 -27h-655q-44 0 -76 31q-31 32 -31 76v1196q0 44 31 76q32 31 76 31h631q27 0 27 -27v-27q0 -27 -27 -27h-631q-25 0 -25 -26v-541h588q27 0 27 -27v-28q0 -27 -27 -27h-588v-573q0 -25 25 -25h655z" />
    <glyph glyph-name="F" unicode="F" horiz-adv-x="1224" 
d="M675 1410q161 0 275 -113q114 -114 114 -275v-1q0 -27 -28 -27h-27q-28 0 -28 27v1q0 126 -89 216q-90 90 -217 90q-126 0 -216 -90t-90 -216v-260h641q27 0 27 -27v-28q0 -27 -27 -27h-641v-653q0 -27 -27 -27h-28q-27 0 -27 27v653h-160q-27 0 -27 27v28q0 27 27 27
h160v260q0 161 114 275q114 113 274 113z" />
    <glyph glyph-name="G" unicode="G" horiz-adv-x="1037" 
d="M214 114q-114 114 -114 274v634q0 161 114 275q113 113 274 113t275 -113q114 -114 114 -275v-14q0 -27 -28 -27h-27q-28 0 -28 27v14q0 127 -89 216q-90 90 -217 90t-216 -90q-90 -90 -90 -216v-634q0 -126 90 -216q89 -90 216 -90t217 90q89 90 89 216v237q0 26 -25 26
h-281q-28 0 -28 28v27q0 27 28 27h281q45 0 76 -32q32 -31 32 -76v-237q0 -160 -114 -274t-275 -114t-274 114z" />
    <glyph glyph-name="H" unicode="H" horiz-adv-x="1038" 
d="M851 1410q27 0 27 -27v-1356q0 -27 -27 -27h-28q-27 0 -27 27v653h-613v-653q0 -27 -28 -27h-27q-28 0 -28 27v1356q0 27 28 27h27q28 0 28 -27v-621h613v621q0 27 27 27h28z" />
    <glyph glyph-name="I" unicode="I" horiz-adv-x="371" 
d="M211 27q0 -27 -26 -27h-28q-27 0 -27 27v1356q0 27 27 27h28q26 0 26 -27v-1356z" />
    <glyph glyph-name="J" unicode="J" horiz-adv-x="1036" 
d="M214 114q-114 114 -114 274v14q0 27 27 27h28q27 0 27 -27v-14q0 -126 90 -216t216 -90q127 0 217 90t90 216v995q0 27 27 27h28q26 0 26 -27v-995q0 -160 -114 -274q-113 -114 -274 -114q-160 0 -274 114z" />
    <glyph glyph-name="K" unicode="K" horiz-adv-x="1112" 
d="M939 44q6 -8 6 -16q0 -6 -3 -13q-8 -15 -24 -15h-35q-15 0 -21 11l-555 743l-124 -120v-607q0 -27 -28 -27h-27q-28 0 -28 27v1356q0 27 28 27h27q28 0 28 -27v-635l682 655q9 7 19 7h41q19 0 25 -17q2 -6 2 -11q0 -11 -8 -19l-578 -553z" />
    <glyph glyph-name="L" unicode="L" horiz-adv-x="955" 
d="M835 27q0 -27 -28 -27h-599q-45 0 -76 31q-32 32 -32 76v1276q0 27 28 27h27q28 0 28 -27v-1276q0 -25 25 -25h599q28 0 28 -27v-28z" />
    <glyph glyph-name="M" unicode="M" horiz-adv-x="1617" 
d="M1097 1410q149 0 255 -105q105 -105 105 -254v-1024q0 -27 -27 -27h-27q-28 0 -28 27v1024q0 114 -81 196q-82 81 -197 81q-114 0 -188 -50q-89 -60 -89 -174v-1077q0 -27 -28 -27h-26q-28 0 -28 27v1077q0 115 -89 174q-74 50 -189 50t-196 -81q-81 -82 -81 -196v-1024
q0 -27 -28 -27h-27q-28 0 -28 27v1024q0 149 105 254q106 105 255 105q228 0 319 -150q91 150 318 150z" />
    <glyph glyph-name="N" unicode="N" horiz-adv-x="1223" 
d="M987 18l-805 1216v-1207q0 -27 -27 -27h-28q-27 0 -27 27v1342q0 30 29 39q8 2 15 2q19 0 31 -18l805 -1215v1206q0 27 28 27h27q28 0 28 -27v-1342q0 -30 -29 -40q-8 -1 -12 -1q-23 0 -35 18z" />
    <glyph glyph-name="O" unicode="O" horiz-adv-x="1037" 
d="M272 1238q-89 -89 -89 -216v-633q0 -127 89 -217q90 -90 217 -90t217 90t90 217v633q0 126 -90 216t-217 90t-217 -90zM214 114q-114 114 -114 275v633q0 161 114 275q114 113 275 113q160 0 274 -113q114 -114 114 -275v-633q0 -161 -114 -275t-274 -114
q-161 0 -275 114z" />
    <glyph glyph-name="P" unicode="P" horiz-adv-x="1092" 
d="M182 626h443q93 0 159 66t66 159v171q0 126 -90 216t-217 90h-336q-25 0 -25 -25v-677zM182 28q0 -28 -27 -28h-28q-27 0 -27 28v1275q0 44 31 76q32 31 76 31h336q161 0 275 -114t114 -274v-171q0 -127 -90 -217t-217 -90h-443v-516z" />
    <glyph glyph-name="Q" unicode="Q" horiz-adv-x="1088" 
d="M488 82q116 0 203 76l-147 147q-10 10 -10 19q0 10 10 19l20 20q10 9 20 9t19 -9l141 -142q51 76 51 168v632q0 127 -90 217q-90 91 -217 91q-126 0 -216 -91q-90 -90 -90 -217v-632q0 -127 90 -217t216 -90zM919 46q9 -8 9 -17q0 -6 -3 -12q-7 -17 -26 -17h-39
q-11 0 -19 8l-92 93q-112 -101 -261 -101q-160 0 -274 114t-114 275v632q0 161 114 275t274 114q161 0 274 -114q114 -114 114 -275v-632q0 -125 -73 -227z" />
    <glyph glyph-name="R" unicode="R" horiz-adv-x="1037" 
d="M570 681q93 0 159 66t66 159v116q0 126 -90 217q-90 90 -217 90h-280q-26 0 -26 -26v-622h388zM877 906q0 -176 -154 -266q154 -90 154 -266v-347q0 -27 -27 -27h-28q-27 0 -27 27v347q0 93 -66 159t-159 66h-388v-572q0 -27 -27 -27h-28q-27 0 -27 27v1276q0 44 31 76
q32 31 77 31h280q161 0 275 -114t114 -274v-116z" />
    <glyph glyph-name="S" unicode="S" horiz-adv-x="1036" 
d="M214 114q-114 114 -114 274v14q0 27 27 27h28q26 0 26 -27v-14q0 -126 90 -216t217 -90t217 90q89 90 89 216v52q0 92 -65 158q-66 66 -159 66h-163q-127 0 -217 90t-90 217v51q0 161 114 275q113 113 274 113t274 -113q114 -114 114 -275v-14q0 -27 -27 -27h-27
q-28 0 -28 27v14q0 127 -89 216q-90 90 -217 90t-217 -90t-90 -216v-51q0 -93 66 -159t160 -66h163q127 0 217 -90q89 -90 89 -216v-52q0 -160 -114 -274q-113 -114 -274 -114t-274 114z" />
    <glyph glyph-name="T" unicode="T" horiz-adv-x="1159" 
d="M1011 1410q28 0 28 -27v-27q0 -28 -28 -28h-400v-1301q0 -27 -28 -27h-27q-28 0 -28 27v1301h-400q-28 0 -28 28v27q0 27 28 27h883z" />
    <glyph glyph-name="U" unicode="U" horiz-adv-x="1037" 
d="M214 114q-114 114 -114 274v995q0 27 28 27h27q27 0 27 -27v-995q0 -126 90 -216t216 -90q127 0 217 90t90 216v995q0 27 27 27h27q28 0 28 -27v-995q0 -160 -114 -274t-275 -114q-160 0 -274 114z" />
    <glyph glyph-name="V" unicode="V" horiz-adv-x="1212" 
d="M556 28l-454 1346q-2 5 -2 10q0 8 6 15q6 10 21 11h28q21 0 26 -18l414 -1223l415 1223q5 18 25 18h30q15 -1 22 -11q5 -7 5 -15q0 -5 -1 -10l-457 -1346q-9 -28 -39 -28q-29 0 -39 28z" />
    <glyph glyph-name="W" unicode="W" horiz-adv-x="1617" 
d="M1430 1410q27 0 27 -27v-1023q0 -149 -105 -255q-106 -105 -255 -105q-233 0 -318 131q-85 -131 -319 -131q-149 0 -255 105q-105 106 -105 255v1023q0 27 28 27h27q28 0 28 -27v-1023q0 -116 81 -197t196 -81q278 0 278 198v1103q0 27 27 27h27q28 0 28 -27v-1103
q0 -198 277 -198q115 0 197 81q81 82 81 197v1023q0 27 28 27h27z" />
    <glyph glyph-name="X" unicode="X" horiz-adv-x="1155" 
d="M1031 42q4 -6 4 -13t-4 -15q-7 -14 -23 -14h-33q-15 0 -23 13l-385 614l-383 -614q-9 -13 -24 -13h-32q-17 0 -24 14q-4 6 -4 13t4 15l415 663l-415 663q-4 8 -4 15t4 13q6 14 24 14h32q15 0 24 -13l383 -614l385 614q8 13 22 13h32q15 0 24 -14q4 -7 4 -13q0 -8 -5 -15
l-413 -662z" />
    <glyph glyph-name="Y" unicode="Y" horiz-adv-x="1037" 
d="M850 1410q27 0 27 -27v-995q0 -160 -114 -274q-113 -114 -274 -114q-121 0 -220 67q-98 67 -142 180l-4 13q-3 7 -3 13q0 14 18 23l25 9q7 3 13 3q16 0 22 -19l6 -12q34 -89 112 -142t173 -53q127 0 217 90t90 216v294q-119 -151 -307 -151h-82q-126 0 -217 90
q-90 90 -90 217v545q0 27 27 27h28q27 0 27 -27v-545q0 -93 66 -159q66 -65 159 -65h82q127 0 217 89q90 90 90 217v463q0 27 27 27h27z" />
    <glyph glyph-name="Z" unicode="Z" horiz-adv-x="1092" 
d="M932 27q0 -27 -28 -27h-762q-24 0 -36 20q-6 11 -6 21t6 20l714 1267h-692q-27 0 -27 28v27q0 27 27 27h762q23 0 36 -20q6 -10 6 -20t-6 -21l-714 -1267h692q28 0 28 -27v-28z" />
    <glyph glyph-name="bracketleft" unicode="[" horiz-adv-x="604" 
d="M444 27q0 -27 -27 -27h-208q-45 0 -77 32t-32 77v1193q0 45 32 77t77 32h208q27 0 27 -27v-28q0 -27 -27 -27h-208q-28 0 -28 -27v-1193q0 -27 28 -27h208q27 0 27 -27v-28z" />
    <glyph glyph-name="backslash" unicode="\" horiz-adv-x="852" 
d="M649 2q-6 -2 -11 -2t-10 2q-9 4 -14 15l-511 1355q-3 7 -3 13q0 16 20 23l25 9q4 2 9 2q6 0 12 -3q12 -5 14 -15l510 -1354q2 -7 2 -13q0 -16 -18 -23z" />
    <glyph glyph-name="bracketright" unicode="]" horiz-adv-x="604" 
d="M100 55q0 27 27 27h208q28 0 28 27v1193q0 27 -28 27h-208q-27 0 -27 27v28q0 27 27 27h208q45 0 77 -32t32 -77v-1193q0 -45 -32 -77t-77 -32h-208q-27 0 -27 27v28z" />
    <glyph glyph-name="asciicircum" unicode="^" horiz-adv-x="1040" 
d="M844 775q-9 -5 -17 -5q-12 0 -21 14l-317 508l-315 -508q-9 -15 -22 -15q-7 0 -16 6l-23 14q-10 7 -13 17v5q0 9 4 16l351 564q12 19 34 19q24 0 35 -19l352 -564q4 -6 4 -13q0 -4 -1 -8q-2 -11 -12 -17z" />
    <glyph glyph-name="underscore" unicode="_" horiz-adv-x="1130" 
d="M970 -54q0 -27 -28 -27h-815q-27 0 -27 27v28q0 27 27 27h815q28 0 28 -27v-28z" />
    <glyph glyph-name="grave" unicode="`" horiz-adv-x="491" 
d="M299 1150q-10 -7 -19 -7q-11 0 -20 11l-153 194q-7 6 -7 19q2 12 11 19l21 17q9 8 18 8q11 0 20 -12l154 -193q7 -7 7 -20q-3 -12 -11 -19z" />
    <glyph glyph-name="a" unicode="a" horiz-adv-x="1057" 
d="M815 552q0 131 -93 223q-92 93 -223 93t-224 -93q-92 -92 -92 -223v-154q0 -131 92 -223q93 -93 224 -93t223 93q93 92 93 223v154zM499 950q164 0 281 -117q117 -116 117 -281v-524q0 -28 -28 -28h-27q-27 0 -27 28v129q-119 -157 -316 -157q-165 0 -282 117t-117 281
v154q0 165 117 281q117 117 282 117z" />
    <glyph glyph-name="b" unicode="b" horiz-adv-x="1056" 
d="M815 552q0 130 -93 223t-224 93t-224 -93q-93 -92 -93 -223v-154q0 -131 93 -223q93 -93 224 -93t224 93q93 92 93 223v154zM498 950q164 0 281 -117q117 -116 117 -281v-154q0 -164 -117 -281t-281 -117t-281 117t-117 281v985q0 28 27 28h28q26 0 26 -28v-590
q121 157 317 157z" />
    <glyph glyph-name="c" unicode="c" horiz-adv-x="1030" 
d="M217 117q-117 117 -117 281v154q0 165 117 281q117 117 282 117q116 0 215 -64t147 -171l6 -12q3 -8 3 -14q0 -14 -16 -22l-26 -12q-8 -3 -14 -3q-15 0 -22 17l-5 13q-39 85 -117 136q-79 50 -171 50q-131 0 -225 -92q-93 -93 -93 -224v-154q0 -131 93 -223
q94 -93 225 -93q92 0 171 51q78 50 117 135l5 13q7 17 21 17q7 0 15 -4l25 -11q17 -8 17 -22q0 -6 -3 -14l-6 -12q-48 -107 -147 -171t-215 -64q-165 0 -282 117z" />
    <glyph glyph-name="d" unicode="d" horiz-adv-x="1057" 
d="M815 552q0 131 -93 223q-93 93 -224 93t-224 -93q-92 -92 -92 -223v-154q0 -131 92 -223q93 -93 224 -93t224 93q93 92 93 223v154zM869 1411q28 0 28 -28v-985q0 -164 -117 -281t-282 -117q-164 0 -281 117t-117 281v154q0 165 117 281q117 117 281 117q198 0 317 -157
v590q0 28 27 28h27z" />
    <glyph glyph-name="e" unicode="e" horiz-adv-x="1057" 
d="M182 537h633v15q0 131 -93 224q-93 92 -223 92q-131 0 -224 -92q-93 -93 -93 -224v-15zM217 117q-117 117 -117 282v153q0 165 117 282q117 116 282 116q164 0 281 -116q117 -117 117 -282v-56q0 -17 -12 -29t-29 -12h-674v-56q0 -131 93 -224t224 -93q93 0 171 51
q78 50 117 135l5 13q8 17 22 17q7 0 14 -3l25 -12q18 -8 18 -22q0 -6 -4 -14l-6 -12q-48 -107 -147 -171t-215 -64q-165 0 -282 117z" />
    <glyph glyph-name="f" unicode="f" horiz-adv-x="889" 
d="M568 1328q-88 0 -151 -63t-63 -151v-151h380q27 0 27 -27v-28q0 -27 -27 -27h-380v-854q0 -27 -28 -27h-27q-27 0 -27 27v854h-165q-27 0 -27 27v28q0 27 27 27h165v151q0 122 87 209q87 86 209 86q98 0 178 -58l10 -9q13 -10 13 -20q0 -9 -8 -18l-15 -22q-8 -9 -20 -10
h-5q-9 0 -14 5l-11 7q-56 44 -128 44z" />
    <glyph glyph-name="g" unicode="g" horiz-adv-x="1057" 
d="M815 552q0 131 -93 224q-92 93 -223 93t-224 -93q-92 -93 -92 -224v-72q0 -130 92 -223q93 -93 224 -93t223 93q93 93 93 223v72zM499 950q165 0 281 -117q117 -116 117 -281v-444q0 -165 -117 -281q-116 -117 -281 -117q-164 0 -282 116l-9 10q-9 10 -9 19q0 10 9 19
l20 20q10 10 19 10q10 0 19 -10l10 -10q93 -92 223 -92q131 0 223 93q93 93 93 223v131q-119 -157 -316 -157q-165 0 -282 117t-117 281v72q0 165 117 281q117 117 282 117z" />
    <glyph glyph-name="h" unicode="h" horiz-adv-x="1057" 
d="M498 950q165 0 282 -116q117 -117 117 -282v-525q0 -27 -28 -27h-27q-28 0 -28 27v525q0 131 -92 224q-93 92 -224 92t-224 -92q-92 -93 -92 -224v-525q0 -27 -27 -27h-28q-27 0 -27 27v1356q0 27 27 27h28q27 0 27 -27v-590q120 157 316 157z" />
    <glyph glyph-name="i" unicode="i" horiz-adv-x="356" 
d="M189 27q0 -27 -27 -27h-28q-27 0 -27 27v960q0 28 27 28h28q27 0 27 -28v-960zM164 1410q32 0 32 -32v-106q0 -31 -32 -31h-33q-31 0 -31 31v106q0 32 31 32h33z" />
    <glyph glyph-name="j" unicode="j" horiz-adv-x="459" 
d="M264 1015q28 0 28 -27v-962q0 -130 -92 -222q-93 -92 -223 -92h-13q-27 0 -27 27v28q0 27 27 27h13q96 0 164 68t68 164v962q0 27 28 27h27zM267 1411q32 0 32 -31v-106q0 -31 -32 -31h-32q-33 0 -33 31v106q0 31 33 31h32z" />
    <glyph glyph-name="k" unicode="k" horiz-adv-x="984" 
d="M816 46q8 -9 8 -18q0 -6 -3 -12q-8 -16 -25 -16h-37q-11 0 -20 9l-449 498l-107 -88v-392q0 -27 -28 -27h-27q-28 0 -28 27v1357q0 27 28 27h27q28 0 28 -27v-859l515 418q7 7 18 7h42q19 0 26 -18q2 -5 2 -10q0 -11 -10 -21l-422 -343z" />
    <glyph glyph-name="l" unicode="l" horiz-adv-x="341" 
d="M181 27q0 -27 -26 -27h-28q-27 0 -27 27v1357q0 27 27 27h28q26 0 26 -27v-1357z" />
    <glyph glyph-name="m" unicode="m" horiz-adv-x="1441" 
d="M965 950q131 0 224 -92q92 -93 92 -223v-608q0 -27 -27 -27h-28q-26 0 -26 27v608q0 97 -69 165t-166 68q-139 0 -194 -49q-40 -35 -40 -102v-690q0 -27 -27 -27h-27q-27 0 -27 27v690q0 67 -39 102q-56 49 -196 49q-96 0 -164 -68t-68 -165v-608q0 -27 -29 -27h-27
q-27 0 -27 27v608q0 130 92 223q93 92 223 92q203 0 276 -97q73 97 274 97z" />
    <glyph glyph-name="n" unicode="n" horiz-adv-x="1056" 
d="M896 27q0 -27 -27 -27h-28q-26 0 -26 27v525q0 131 -93 224q-93 92 -224 92t-224 -92q-93 -93 -93 -224v-525q0 -27 -26 -27h-27q-28 0 -28 27v525q0 165 117 281q117 117 281 117t281 -117q117 -116 117 -281v-525z" />
    <glyph glyph-name="o" unicode="o" horiz-adv-x="1056" 
d="M275 776q-93 -93 -93 -224v-153q0 -131 93 -224t224 -93q130 0 223 93t93 224v153q0 131 -93 224q-93 92 -223 92q-131 0 -224 -92zM217 117q-117 117 -117 282v153q0 165 117 281q117 117 282 117q164 0 281 -117q116 -116 116 -281v-153q0 -165 -116 -282
q-117 -117 -281 -117q-165 0 -282 117z" />
    <glyph glyph-name="p" unicode="p" horiz-adv-x="1057" 
d="M815 551q0 131 -93 224q-92 92 -223 92t-224 -92q-92 -93 -92 -224v-153q0 -131 92 -224q93 -92 224 -92t223 92q93 93 93 224v153zM499 949q164 0 281 -116q117 -117 117 -282v-153q0 -165 -117 -282q-117 -116 -281 -116q-197 0 -316 156v-420q0 -27 -28 -27h-27
q-28 0 -28 27v815q0 165 117 282q117 116 282 116z" />
    <glyph glyph-name="q" unicode="q" horiz-adv-x="1057" 
d="M182 398q0 -131 92 -224q93 -92 224 -92t224 92q92 93 92 224v153q0 131 -92 224q-93 92 -224 92t-224 -92q-92 -93 -92 -224v-153zM780 833q117 -117 117 -282v-815q0 -27 -28 -27h-27q-28 0 -28 27v420q-119 -156 -316 -156q-164 0 -281 116q-117 117 -117 282v153
q0 165 117 282q117 116 281 116q165 0 282 -116z" />
    <glyph glyph-name="r" unicode="r" horiz-adv-x="828" 
d="M181 27q0 -27 -27 -27h-27q-27 0 -27 27v598q0 134 95 230q95 95 229 95q105 0 191 -61q47 -34 80 -82l7 -12q6 -9 6 -16q0 -11 -13 -21l-23 -16q-7 -4 -14 -4q-3 0 -6 1q-10 1 -18 11l-8 11q-24 36 -60 62q-64 45 -142 45q-100 0 -171 -71q-72 -72 -72 -172v-598z" />
    <glyph glyph-name="s" unicode="s" horiz-adv-x="930" 
d="M385 0q-95 1 -170 57q-76 56 -103 147l-4 13q-1 4 -1 8q0 7 3 13q7 11 16 13l27 8q6 2 11 2q16 0 23 -20l4 -14q19 -64 73 -104q53 -41 121 -41h98q68 0 123 40q54 40 73 105q10 31 10 60q0 61 -44 104q-43 43 -104 43h-212q-95 0 -162 67t-67 162q0 43 12 82
q27 91 102 147q75 57 169 58h100q96 0 172 -57q75 -56 103 -148l4 -12q1 -6 1 -10q0 -18 -20 -25l-25 -7q-7 -2 -12 -2q-17 0 -23 20l-4 13q-19 66 -73 106t-123 40h-99q-67 -1 -121 -41q-53 -40 -72 -105q-9 -28 -9 -59q0 -61 43 -104q43 -44 104 -44h212q95 0 162 -67
t67 -161q0 -43 -12 -83q-28 -92 -103 -148q-76 -56 -172 -56h-98z" />
    <glyph glyph-name="t" unicode="t" horiz-adv-x="939" 
d="M806 171q13 -9 13 -21q0 -8 -6 -17l-8 -11q-26 -39 -68 -70q-71 -52 -161 -52q-115 0 -197 81q-81 81 -81 196v591h-190q-28 0 -28 28v27q0 27 28 27h190v434q0 27 28 27h27q27 0 27 -27v-434h383q26 0 26 -27v-27q0 -28 -26 -28h-383v-591q0 -81 58 -138q57 -57 138 -57
q61 0 114 36q30 22 47 50l8 11q9 14 21 14q8 0 17 -7z" />
    <glyph glyph-name="u" unicode="u" horiz-adv-x="1056" 
d="M217 117q-117 117 -117 281v524q0 28 27 28h28q26 0 26 -28v-524q0 -131 93 -223q93 -93 224 -93t224 93q93 92 93 223v524q0 28 26 28h28q27 0 27 -28v-524q0 -164 -117 -281t-281 -117t-281 117z" />
    <glyph glyph-name="v" unicode="v" horiz-adv-x="1083" 
d="M474 24l-411 887q-3 6 -3 12q0 7 5 14q8 13 23 13h31q16 0 24 -16l368 -795l369 795q7 16 24 16h31q15 0 23 -13q5 -7 5 -15q0 -5 -3 -11l-411 -887q-11 -24 -38 -24q-26 0 -37 24z" />
    <glyph glyph-name="w" unicode="w" horiz-adv-x="1441" 
d="M1254 950q27 0 27 -28v-607q0 -130 -92 -223q-93 -92 -224 -92q-200 0 -274 96q-73 -96 -276 -96q-130 0 -222 92q-93 93 -93 223v607q0 28 28 28h27q28 0 28 -28v-607q0 -96 68 -165q68 -68 164 -68q140 0 196 49q39 35 39 103v688q0 28 27 28h27q27 0 27 -28v-688
q0 -68 40 -103q55 -49 194 -49q97 0 166 68q69 69 69 165v607q0 28 26 28h28z" />
    <glyph glyph-name="x" unicode="x" horiz-adv-x="1066" 
d="M938 45q8 -9 8 -18q0 -5 -3 -11q-9 -16 -26 -16h-36q-13 0 -21 10l-348 420l-348 -420q-9 -10 -21 -10h-35q-18 0 -25 16q-3 6 -3 12q0 9 6 17l374 450l-339 410q-7 8 -7 17q0 6 3 12q7 16 25 16h34q13 0 21 -10l315 -381l316 381q8 10 21 10h35q17 0 25 -16q3 -6 3 -12
q0 -9 -7 -17l-340 -410z" />
    <glyph glyph-name="y" unicode="y" horiz-adv-x="1056" 
d="M869 949q27 0 27 -27v-816q0 -164 -117 -281t-281 -117q-166 0 -281 116l-9 10q-10 10 -10 19q0 10 9 19l20 20q10 10 19 10q10 0 19 -10l10 -10q93 -92 223 -92q131 0 224 93q93 92 93 223v132q-122 -156 -317 -156q-164 0 -281 116q-117 117 -117 282v442q0 27 28 27
h27q26 0 26 -27v-442q0 -131 93 -224t224 -93t224 93t93 224v442q0 27 26 27h28z" />
    <glyph glyph-name="z" unicode="z" horiz-adv-x="1061" 
d="M901 27q0 -27 -28 -27h-701q-25 0 -37 23q-4 9 -4 18q0 13 9 25l606 802h-619q-27 0 -27 28v27q0 27 27 27h702q25 0 36 -23q4 -9 4 -17q0 -13 -9 -26l-606 -802h619q28 0 28 -27v-28z" />
    <glyph glyph-name="braceleft" unicode="{" horiz-adv-x="642" 
d="M276 790q0 -56 -39 -93q39 -39 39 -95v-502q0 -18 17 -18h161q28 0 28 -27v-27q0 -28 -28 -28h-161q-41 0 -70 29q-29 30 -29 71v502q0 22 -16 38q-15 16 -38 16h-13q-27 0 -27 27v27q0 28 27 28h13q23 0 38 15q16 15 16 37v521q0 41 29 71q29 29 70 29h161q28 0 28 -28
v-27q0 -27 -28 -27h-161q-17 0 -17 -18v-521z" />
    <glyph glyph-name="bar" unicode="|" horiz-adv-x="372" 
d="M157 0q-27 0 -27 27v1357q0 12 8 19q8 8 19 8h28q27 0 27 -27v-1357q0 -12 -8 -19q-6 -8 -19 -8h-28z" />
    <glyph glyph-name="braceright" unicode="}" horiz-adv-x="642" 
d="M305 1311q0 18 -17 18h-160q-28 0 -28 27v27q0 28 28 28h160q41 0 71 -29q29 -30 29 -71v-521q0 -22 15 -37q16 -15 38 -15h14q27 0 27 -28v-27q0 -27 -27 -27h-14q-22 0 -38 -16q-15 -16 -15 -38v-502q0 -41 -29 -71q-30 -29 -71 -29h-160q-28 0 -28 28v27q0 27 28 27
h160q17 0 17 18v502q0 56 39 95q-39 37 -39 93v521z" />
    <glyph glyph-name="asciitilde" unicode="~" horiz-adv-x="983" 
d="M182 568q0 -11 -8 -19q-9 -7 -20 -7l-28 2q-26 1 -26 25v4l2 13q8 151 176 167q8 1 17 1q78 0 188 -66q93 -53 146 -53h9q97 9 104 89v15q2 12 9 18q8 7 18 7h2l26 -1q26 -3 26 -27v-17q-4 -71 -51 -115q-46 -43 -126 -50q-9 -1 -19 -1q-77 0 -185 65q-93 54 -148 54h-9
q-97 -9 -102 -90z" />
    <glyph glyph-name="copyright" unicode="&#xa9;" horiz-adv-x="1328" 
d="M1086 881q0 188 -133 320q-132 132 -319 132t-320 -132q-132 -132 -132 -320v-347q0 -187 132 -319q133 -133 320 -133t319 133q133 132 133 319v347zM634 1416q221 0 377 -157q157 -156 157 -378v-347q0 -221 -157 -377q-156 -157 -377 -157t-377 157q-157 156 -157 377
v347q0 222 157 378q156 157 377 157zM634 1115q96 0 165 -69t69 -165v-13q0 -28 -27 -28h-28q-27 0 -27 28v13q0 63 -45 107q-45 45 -107 45q-63 0 -108 -45q-44 -44 -44 -107v-351q0 -63 44 -108q45 -45 108 -45q62 0 107 45t45 108v13q0 28 27 28h28q27 0 27 -28v-13
q0 -97 -69 -166t-165 -69q-97 0 -165 69q-69 69 -69 166v351q0 96 69 165q68 69 165 69z" />
    <glyph glyph-name="registered" unicode="&#xae;" horiz-adv-x="1328" 
d="M1086 881q0 188 -133 320q-132 132 -319 132t-320 -132q-132 -132 -132 -320v-347q0 -187 132 -319q133 -133 320 -133t319 133q133 132 133 319v347zM634 1416q221 0 377 -157q157 -156 157 -378v-347q0 -221 -157 -377q-156 -157 -377 -157t-378 157q-156 156 -156 377
v347q0 222 156 378q157 157 378 157zM679 710q44 0 76 31q31 32 31 75v65q0 62 -45 107q-44 45 -107 45h-152v-323h197zM661 1113q88 -11 147 -77q60 -66 60 -155v-65q0 -91 -72 -147q72 -57 72 -147v-199q0 -27 -28 -27h-27q-27 0 -27 27v199q0 44 -31 75q-32 31 -76 31
h-197v-305q0 -27 -27 -27h-28q-27 0 -27 27v714q0 32 23 55q22 23 55 23h183v-2z" />
    <glyph glyph-name="CommaArabic" unicode="&#x60c;" horiz-adv-x="433" 
d="M195 273q8 18 23 18q6 0 13 -3l25 -11q11 -4 15 -14q2 -5 2 -10t-2 -11l-93 -224q-7 -18 -22 -18q-7 0 -14 3l-25 11q-12 5 -15 15q-2 5 -2 10t2 10z" />
    <glyph glyph-name="SemicolonArabic" unicode="&#x61b;" horiz-adv-x="436" 
d="M120 613q-11 4 -14 15q-2 6 -2 11t2 10l93 223q6 18 21 18q6 0 14 -3l25 -10q10 -4 15 -15q2 -5 2 -10t-2 -11l-93 -224q-8 -17 -23 -17q-6 0 -13 3zM132 0q-32 0 -32 31v99q0 31 32 31h33q31 0 31 -31v-99q0 -31 -31 -31h-33z" />
    <glyph glyph-name="QuestionArabic" unicode="&#x61f;" horiz-adv-x="1057" 
d="M780 1300q117 -117 117 -281v-14q0 -27 -28 -27h-27q-27 0 -27 27v14q0 130 -93 223t-223 93q-131 0 -224 -93t-93 -223v-43q0 -96 68 -164t164 -68h114q80 0 128 -56q50 -57 50 -149v-245q0 -27 -28 -27h-27q-27 0 -27 27v245q0 42 -15 73q-24 50 -81 50h-114
q-130 0 -222 93q-92 92 -92 221v43q0 164 117 281t282 117q164 0 281 -117zM683 141q31 0 31 -31v-79q0 -31 -31 -31h-34q-31 0 -31 31v79q0 31 31 31h34z" />
    <glyph glyph-name="Tatweel" unicode="&#x640;" horiz-adv-x="310" 
d="M-10 82h330v-82h-330v82z" />
    <glyph glyph-name="Fathatan" unicode="&#x64b;" 
d="M280 1558q22 0 22 -22v-11q0 -22 -22 -22h-257q-23 0 -23 22v11q0 22 23 22h257zM280 1697q22 0 22 -22v-11q0 -22 -22 -22h-257q-23 0 -23 22v11q0 22 23 22h257z" />
    <glyph glyph-name="Dammatan" unicode="&#x64c;" 
d="M265 1556q22 0 38 16t16 38q0 23 -16 39t-38 16q-23 0 -39 -16t-16 -39q0 -22 16 -38t39 -16zM265 1720q45 0 77 -33q31 -32 31 -77t-31 -77q-32 -32 -77 -32h-200q-17 0 -25 16l-39 87q-1 5 -1 9t1 8q3 9 12 12l10 5q4 2 8 2t8 -2q9 -3 13 -11l30 -71h89q-16 27 -16 54
q0 45 32 77q32 33 78 33z" />
    <glyph glyph-name="Kasratan" unicode="&#x64d;" 
d="M280 -242q22 0 22 -22v-11q0 -22 -22 -22h-257q-23 0 -23 22v11q0 22 23 22h257zM280 -103q22 0 22 -22v-11q0 -22 -22 -22h-257q-23 0 -23 22v11q0 22 23 22h257z" />
    <glyph glyph-name="Fatha" unicode="&#x64e;" 
d="M280 1558q22 0 22 -22v-11q0 -22 -22 -22h-257q-23 0 -23 22v11q0 22 23 22h257z" />
    <glyph glyph-name="Damma" unicode="&#x64f;" 
d="M227 1556q22 0 38 16t16 38q0 23 -16 39t-38 16q-23 0 -40 -16q-16 -16 -16 -39q0 -22 16 -38q17 -16 40 -16zM227 1720q45 0 76 -33q32 -32 32 -77t-32 -77q-31 -32 -76 -32h-206q-21 0 -21 22v11q0 22 21 22h111q-15 27 -15 54q0 46 32 77q32 33 78 33z" />
    <glyph glyph-name="Kasra" unicode="&#x650;" 
d="M280 -103q22 0 22 -22v-11q0 -22 -22 -22h-257q-23 0 -23 22v11q0 22 23 22h257z" />
    <glyph glyph-name="Shadda" unicode="&#x651;" 
d="M343 1718q21 0 21 -21v-93q0 -43 -31 -73q-30 -31 -73 -31q-46 0 -78 35q-32 -35 -78 -35q-43 0 -74 31q-30 30 -30 73v93q0 21 21 21h11q23 0 23 -21v-93q0 -20 14 -35q14 -14 35 -14t36 14q15 15 15 35v93q0 21 22 21h10q23 0 23 -21v-93q0 -20 14 -35q15 -14 36 -14
t35 14q14 15 14 35v93q0 21 23 21h11z" />
    <glyph glyph-name="Sukun" unicode="&#x652;" 
d="M71 1648q-16 -16 -16 -39q0 -22 16 -38t38 -16q23 0 39 16t16 38q0 23 -16 39t-39 16q-22 0 -38 -16zM32 1532q-32 32 -32 77t32 78q32 32 77 32t77 -32q32 -33 32 -78t-32 -77t-77 -32t-77 32z" />
    <glyph glyph-name="Madda" unicode="&#x653;" 
d="M15 1561q-15 8 -15 21q0 8 5 17l2 2q32 55 96 59h7q36 0 103 -18q50 -14 82 -14q34 0 47 16l2 2q9 12 20 12q9 0 18 -8l5 -3q9 -7 10 -18v-3q0 -10 -6 -17l-1 -2q-31 -38 -96 -38q-41 0 -96 15q-57 15 -84 15h-6q-33 -1 -50 -29v-2q-10 -16 -22 -16q-8 0 -16 6z" />
    <glyph glyph-name="HamzaAbove" unicode="&#x654;" 
d="M245 1555q22 0 22 -22v-11q0 -22 -22 -22h-224q-21 0 -21 22v11q0 22 21 22h32v85q0 44 31 75t74 31q71 0 99 -65l2 -5q2 -4 2 -8t-2 -9q-4 -8 -13 -11l-9 -5q-6 -2 -11 -2q-12 0 -18 13l-2 6q-12 31 -48 31q-21 0 -35 -15q-15 -15 -15 -36v-85h137z" />
    <glyph glyph-name="HamzaBelow" unicode="&#x655;" 
d="M245 -291q22 0 22 -22v-11q0 -22 -22 -22h-224q-21 0 -21 22v11q0 22 21 22h32v85q0 44 31 75t74 31q71 0 99 -65l2 -5q2 -4 2 -8t-2 -9q-4 -8 -13 -11l-9 -5q-6 -2 -11 -2q-12 0 -18 13l-2 6q-12 31 -48 31q-21 0 -35 -15q-15 -15 -15 -36v-85h137z" />
    <glyph glyph-name="ZeroArabic" unicode="&#x660;" horiz-adv-x="1037" 
d="M272 1238q-90 -90 -90 -217v-632q0 -127 90 -217t216 -90q127 0 217 90t90 217v632q0 127 -90 217t-217 90q-126 0 -216 -90zM214 114q-114 114 -114 275v632q0 161 114 275t274 114q161 0 275 -114t114 -275v-632q0 -161 -114 -275t-275 -114q-160 0 -274 114z" />
    <glyph glyph-name="OneArabic" unicode="&#x661;" horiz-adv-x="653" 
d="M473 27q0 -27 -27 -27h-28q-26 0 -26 27v1276q0 25 -26 25h-239q-27 0 -27 27v27q0 28 27 28h239q44 0 76 -32q31 -31 31 -75v-1276z" />
    <glyph glyph-name="TwoArabic" unicode="&#x662;" horiz-adv-x="1038" 
d="M837 27q0 -27 -27 -27h-603q-44 0 -76 31q-31 32 -31 76v333q0 82 59 141q58 59 141 59h270q93 0 159 65q65 66 65 159v158q0 126 -89 216q-90 90 -217 90q-126 0 -216 -90q-91 -90 -91 -216v-14q0 -28 -26 -28h-28q-27 0 -27 28v14q0 160 114 274q113 114 274 114
t275 -114q115 -114 115 -274v-158q0 -126 -91 -216q-90 -90 -217 -90h-270q-49 0 -84 -35t-35 -83v-333q0 -25 26 -25h603q27 0 27 -27v-28z" />
    <glyph glyph-name="ThreeArabic" unicode="&#x663;" horiz-adv-x="1037" 
d="M214 114q-114 114 -114 274v14q0 27 28 27h27q28 0 28 -27v-14q0 -127 89 -216q90 -90 217 -90t217 90t90 216v78q0 93 -66 159t-160 66h-198q-16 0 -28 12t-12 29q0 16 12 28t28 12h198q93 0 160 66q66 66 66 159v25q0 126 -90 216t-217 90t-217 -90q-89 -90 -89 -216
v-14q0 -27 -28 -27h-27q-28 0 -28 27v14q0 160 114 274t275 114q160 0 274 -114t114 -274v-25q0 -178 -153 -265q153 -89 153 -266v-78q0 -160 -114 -274t-274 -114q-161 0 -275 114z" />
    <glyph glyph-name="FourArabic" unicode="&#x664;" horiz-adv-x="1225" 
d="M222 454h574v789zM878 27q0 -27 -28 -27h-27q-27 0 -27 27v345h-655q-25 0 -36 23q-5 10 -5 19q0 12 8 24l696 955q12 18 30 18q7 0 15 -3q29 -9 29 -39v-915h159q28 0 28 -27v-28q0 -27 -28 -27h-159v-345z" />
    <glyph glyph-name="FiveArabic" unicode="&#x665;" horiz-adv-x="1037" 
d="M214 114q-114 114 -114 274v14q0 27 28 27h27q28 0 28 -27v-14q0 -126 89 -216q90 -90 216 -90q127 0 217 90t90 216v184q0 93 -66 159q-65 66 -159 66h-429q-17 0 -29 12t-12 29v465q0 44 31 75q32 32 77 32h562q27 0 27 -28v-27q0 -27 -27 -27h-562q-25 0 -25 -25v-424
h387q127 0 217 -90t90 -217v-184q0 -160 -114 -274t-275 -114q-160 0 -274 114z" />
    <glyph glyph-name="SixArabic" unicode="&#x666;" horiz-adv-x="1037" 
d="M488 797q-126 0 -216 -90t-90 -217v-102q0 -126 90 -216t216 -90q127 0 217 90q89 90 89 216v184q0 93 -65 159q-66 66 -159 66h-82zM822 981q-28 0 -28 27v14q0 127 -89 216q-90 90 -217 90t-216 -90q-90 -89 -90 -216v-294q117 151 306 151h82q127 0 217 -90t90 -217
v-184q0 -160 -114 -274t-275 -114q-149 0 -260 101q-110 100 -125 246h-3v675q0 160 114 274t274 114q161 0 275 -114t114 -274v-14q0 -27 -28 -27h-27z" />
    <glyph glyph-name="SevenArabic" unicode="&#x667;" horiz-adv-x="1037" 
d="M335 17q-7 -17 -25 -17h-30q-14 0 -22 12q-6 7 -6 15q0 5 3 11l520 1290h-648q-27 0 -27 27v27q0 28 27 28h709q21 0 33 -18q8 -10 8 -21q0 -8 -4 -17z" />
    <glyph glyph-name="EightArabic" unicode="&#x668;" horiz-adv-x="1036" 
d="M570 734q93 0 159 66t66 158v64q0 126 -90 216t-217 90q-126 0 -216 -90q-90 -89 -90 -216v-64q0 -92 66 -158q65 -66 158 -66h164zM795 427q0 93 -66 159t-159 66h-164q-93 0 -158 -66q-66 -66 -66 -159v-39q0 -126 90 -216t216 -90q127 0 217 90t90 216v39zM876 958
q0 -176 -153 -265q153 -90 153 -266v-39q0 -160 -114 -274q-113 -114 -274 -114t-274 114q-114 114 -114 274v39q0 177 154 266q-154 89 -154 265v64q0 149 100 260t247 126v2h82v-2q147 -15 247 -126q100 -110 100 -260v-64z" />
    <glyph glyph-name="NineArabic" unicode="&#x669;" horiz-adv-x="1038" 
d="M795 1021q0 127 -90 217q-89 90 -216 90q-126 0 -216 -90t-90 -217v-183q0 -93 65 -159q66 -66 159 -66h82q127 0 216 90q90 90 90 217v101zM878 1062v-673q0 -161 -115 -275q-114 -114 -274 -114q-161 0 -275 114t-114 275v13q0 28 27 28h28q28 0 28 -28v-13
q0 -127 90 -217t216 -90q127 0 216 90q90 90 90 217v293q-117 -151 -306 -151h-82q-127 0 -217 90t-90 217v183q0 161 114 275t275 114q150 0 261 -101q110 -100 125 -247h3z" />
  </font>
</defs>
</svg>
